SplineFontDB: 3.0
FontName: CotswaldsItalic
FullName: Cotswalds Italic
FamilyName: Cotswalds
Weight: Regular
Copyright: Copyright (c) 2016, Brian Connors
UComments: "2016-12-12: Created with FontForge (http://fontforge.org)"
Version: 001.000
ItalicAngle: 0
UnderlinePosition: -100
UnderlineWidth: 50
Ascent: 800
Descent: 200
InvalidEm: 0
LayerCount: 2
Layer: 0 0 "Back" 1
Layer: 1 0 "Fore" 0
XUID: [1021 273 464692840 9102604]
FSType: 0
OS2Version: 0
OS2_WeightWidthSlopeOnly: 0
OS2_UseTypoMetrics: 1
CreationTime: 1481521957
ModificationTime: 1481522008
PfmFamily: 17
TTFWeight: 400
TTFWidth: 5
LineGap: 90
VLineGap: 0
OS2TypoAscent: 0
OS2TypoAOffset: 1
OS2TypoDescent: 0
OS2TypoDOffset: 1
OS2TypoLinegap: 90
OS2WinAscent: 0
OS2WinAOffset: 1
OS2WinDescent: 0
OS2WinDOffset: 1
HheadAscent: 0
HheadAOffset: 1
HheadDescent: 0
HheadDOffset: 1
OS2Vendor: 'PfEd'
MarkAttachClasses: 1
DEI: 91125
Encoding: ISO8859-1
UnicodeInterp: none
NameList: AGL For New Fonts
DisplaySize: -48
AntiAlias: 1
FitToEm: 0
WinInfo: 51 17 9
BeginPrivate: 0
EndPrivate
BeginChars: 256 189

StartChar: exclam
Encoding: 33 33 0
Width: 186
VWidth: 1024
Flags: HW
LayerCount: 2
Fore
SplineSet
40 0 m 5
 10 43 l 5
 19 85 l 5
 70 128 l 5
 109 128 l 5
 138 85 l 5
 129 43 l 5
 79 0 l 5
 40 0 l 5
89 213 m 5
 89 384 l 5
 147 640 l 5
 208 725 l 5
 247 725 l 5
 267 640 l 5
 208 384 l 5
 128 213 l 5
 89 213 l 5
EndSplineSet
EndChar

StartChar: quotedbl
Encoding: 34 34 1
Width: 345
VWidth: 1024
Flags: HW
LayerCount: 2
Fore
SplineSet
158 512 m 1
 147 640 l 1
 158 683 l 1
 208 725 l 1
 247 725 l 1
 276 683 l 1
 267 640 l 1
 198 512 l 1
 158 512 l 1
316 512 m 1
 307 640 l 1
 316 683 l 1
 366 725 l 1
 406 725 l 1
 436 683 l 1
 426 640 l 1
 356 512 l 1
 316 512 l 1
EndSplineSet
EndChar

StartChar: numbersign
Encoding: 35 35 2
Width: 504
VWidth: 1024
Flags: HW
LayerCount: 2
Fore
SplineSet
347 299 m 1
 386 469 l 1
 267 469 l 1
 228 299 l 1
 347 299 l 1
148 128 m 1
 178 256 l 1
 59 256 l 1
 69 299 l 1
 188 299 l 1
 227 469 l 1
 109 469 l 1
 118 512 l 1
 238 512 l 1
 267 640 l 1
 307 640 l 1
 278 512 l 1
 396 512 l 1
 426 640 l 1
 465 640 l 1
 435 512 l 1
 554 512 l 1
 545 469 l 1
 425 469 l 1
 386 299 l 1
 505 299 l 1
 496 256 l 1
 376 256 l 1
 347 128 l 1
 307 128 l 1
 337 256 l 1
 218 256 l 1
 188 128 l 1
 148 128 l 1
EndSplineSet
EndChar

StartChar: dollar
Encoding: 36 36 3
Width: 424
VWidth: 1024
Flags: HW
LayerCount: 2
Fore
SplineSet
258 85 m 1
 303 106 l 1
 327 128 l 1
 356 171 l 1
 367 213 l 1
 347 299 l 1
 276 341 l 1
 218 85 l 1
 258 85 l 1
258 427 m 1
 307 640 l 1
 267 640 l 1
 222 618 l 1
 197 597 l 1
 168 555 l 1
 187 469 l 1
 258 427 l 1
159 0 m 1
 169 43 l 1
 129 43 l 1
 59 85 l 1
 30 128 l 1
 40 171 l 1
 84 193 l 1
 119 171 l 1
 129 128 l 1
 143 106 l 1
 178 85 l 1
 238 341 l 1
 198 341 l 1
 163 362 l 1
 119 427 l 1
 109 469 l 1
 128 555 l 1
 187 640 l 1
 276 683 l 1
 316 683 l 1
 327 725 l 1
 366 725 l 1
 355 683 l 1
 395 683 l 1
 465 640 l 1
 495 597 l 1
 485 555 l 1
 440 534 l 1
 407 555 l 1
 396 597 l 1
 381 618 l 1
 346 640 l 1
 297 427 l 1
 337 427 l 1
 372 406 l 1
 416 341 l 1
 426 299 l 1
 396 171 l 1
 337 85 l 1
 248 43 l 1
 208 43 l 1
 198 0 l 1
 159 0 l 1
EndSplineSet
EndChar

StartChar: percent
Encoding: 37 37 4
Width: 463
VWidth: 1024
Flags: HW
LayerCount: 2
Fore
SplineSet
288 43 m 152
 302 45.6666666667 312 49.6666666667 318 55 c 256
 324.666666667 61 331 71 337 85 c 24
 343 99.6666666667 346.5 114.166666667 347.5 128.5 c 152
 348.5 142.833333333 346.666666667 152.666666667 342 158 c 256
 338 164 329.666666667 168.333333333 317 171 c 24
 304.333333333 173.666666667 291.166666667 173.666666667 277.5 171 c 152
 263.833333333 168.333333333 253.333333333 164 246 158 c 256
 239.333333333 152 233 142 227 128 c 24
 221 113.333333333 217.833333333 98.8333333333 217.5 84.5 c 152
 217.166666667 70.1666666667 218.666666667 60.3333333333 222 55 c 256
 226 49 234.666666667 45 248 43 c 24
 260.666666667 40.3333333333 274 40.3333333333 288 43 c 152
239 0 m 24
 229 2.66666666667 217 10 203 22 c 24
 197 27.3333333333 192.333333333 34.3333333333 189 43 c 24
 182.333333333 60.3333333333 179 74.3333333333 179 85 c 24
 179 99.6666666667 182 114 188 128 c 24
 193.333333333 138.666666667 203.333333333 153 218 171 c 24
 224.666666667 179.666666667 233 187 243 193 c 24
 261 203.666666667 276 210.333333333 288 213 c 24
 302.666666667 216.333333333 316 216.333333333 328 213 c 24
 338 210.333333333 349 203.666666667 361 193 c 24
 367 187.666666667 372.333333333 180.333333333 377 171 c 24
 383.666666667 153 387 138.666666667 387 128 c 24
 387 113.333333333 383.666666667 99 377 85 c 24
 372.333333333 74.3333333333 362.333333333 60.3333333333 347 43 c 24
 340.333333333 34.3333333333 332.333333333 27.3333333333 323 22 c 24
 304.333333333 10.6666666667 289.666666667 3.33333333333 279 0 c 24
 264.333333333 -3.33333333333 251 -3.33333333333 239 0 c 24
247 555 m 156
 261 557.666666667 271.333333333 561.666666667 278 567 c 260
 284.666666667 573 291 583 297 597 c 28
 303 611.666666667 306.333333333 626.166666667 307 640.5 c 156
 307.666666667 654.833333333 305.666666667 664.666666667 301 670 c 260
 297 676 288.666666667 680.333333333 276 683 c 28
 263.333333333 685.666666667 250.166666667 685.666666667 236.5 683 c 156
 222.833333333 680.333333333 212.666666667 676 206 670 c 260
 199.333333333 664 193 654 187 640 c 28
 181 625.333333333 177.666666667 610.833333333 177 596.5 c 156
 176.333333333 582.166666667 178 572.333333333 182 567 c 260
 186 561 194.333333333 557 207 555 c 28
 219.666666667 552.333333333 233 552.333333333 247 555 c 156
198 512 m 28
 188 514.666666667 176.333333333 522 163 534 c 28
 156.333333333 539.333333333 151.333333333 546.333333333 148 555 c 28
 141.333333333 572.333333333 138 586.333333333 138 597 c 28
 138 611.666666667 141 626 147 640 c 28
 152.333333333 651.333333333 162.666666667 665.666666667 178 683 c 28
 184.666666667 691.666666667 193 699 203 705 c 28
 221 715.666666667 235.666666667 722.333333333 247 725 c 28
 261.666666667 728.333333333 275 728.333333333 287 725 c 28
 297 722.333333333 308.666666667 715.666666667 322 705 c 28
 328.666666667 699.666666667 333.666666667 692.333333333 337 683 c 28
 343.666666667 665.666666667 346.666666667 651.333333333 346 640 c 28
 346 625.333333333 342.666666667 611 336 597 c 28
 330.666666667 585.666666667 321 571.666666667 307 555 c 28
 300.333333333 547 292.333333333 540 283 534 c 28
 264.333333333 522.666666667 249.333333333 515.333333333 238 512 c 28
 223.333333333 508.666666667 210 508.666666667 198 512 c 28
0 0 m 1
 505 725 l 1
 545 725 l 1
 40 0 l 1
 0 0 l 1
EndSplineSet
EndChar

StartChar: ampersand
Encoding: 38 38 5
Width: 742
VWidth: 1024
Flags: HW
LayerCount: 2
Fore
SplineSet
327 43 m 1
 417 85 l 1
 466 128 l 1
 485 157 l 1
 307 413 l 1
 248 384 l 1
 198 341 l 1
 138 256 l 1
 128 213 l 1
 148 128 l 1
 178 85 l 1
 248 43 l 1
 327 43 l 1
372 462 m 1
 386 469 l 1
 435 512 l 1
 465 555 l 1
 485 640 l 1
 470 662 l 1
 436 683 l 1
 395 683 l 1
 351 662 l 1
 327 640 l 1
 316 597 l 1
 336 512 l 1
 372 462 l 1
198 0 m 1
 94 63 l 1
 49 128 l 1
 40 171 l 1
 59 256 l 1
 119 341 l 1
 168 384 l 1
 287 440 l 1
 267 469 l 1
 247 555 l 1
 257 597 l 1
 316 683 l 1
 406 725 l 1
 445 725 l 1
 515 683 l 1
 535 597 l 1
 525 555 l 1
 496 512 l 1
 421 449 l 1
 391 434 l 1
 530 234 l 1
 537 230 l 1
 608 333 l 1
 560 362 l 1
 565 384 l 1
 724 384 l 1
 719 362 l 1
 674 341 l 1
 565 184 l 1
 650 63 l 1
 684 43 l 1
 674 0 l 1
 635 0 l 1
 565 43 l 1
 516 114 l 1
 496 85 l 1
 446 43 l 1
 357 0 l 1
 198 0 l 1
EndSplineSet
EndChar

StartChar: quotesingle
Encoding: 39 39 6
Width: 186
VWidth: 1024
Flags: HW
LayerCount: 2
Fore
SplineSet
158 512 m 1
 147 640 l 1
 158 683 l 1
 208 725 l 1
 247 725 l 1
 276 683 l 1
 267 640 l 1
 198 512 l 1
 158 512 l 1
EndSplineSet
EndChar

StartChar: parenleft
Encoding: 40 40 7
Width: 306
VWidth: 1024
Flags: HW
LayerCount: 2
Fore
SplineSet
228 -43 m 24
 124 22 l 24
 103.333333333 39.3333333333 88.3333333333 60.3333333333 79 85 c 24
 57 143 47 185.666666667 49 213 c 24
 57.6666666667 311.666666667 81 411.333333333 119 512 c 24
 129 539.333333333 158.333333333 582 207 640 c 24
 229 665.333333333 254 687 282 705 c 24
 343.333333333 743 388 764 416 768 c 24
 406 725 l 24
 317 683 l 24
 259.666666667 624.333333333 220 567.333333333 198 512 c 24
 158 413.333333333 134.666666667 313.666666667 128 213 c 24
 124.666666667 157.666666667 138.333333333 101 169 43 c 24
 239 0 l 24
 228 -43 l 24
EndSplineSet
EndChar

StartChar: parenright
Encoding: 41 41 8
Width: 306
VWidth: 1024
Flags: HW
LayerCount: 2
Fore
SplineSet
-10 -43 m 24
 0 0 l 24
 89 43 l 24
 146.333333333 101.666666667 186 158.333333333 208 213 c 24
 248 313 271.333333333 412.666666667 278 512 c 24
 281.333333333 567.333333333 267.666666667 624.333333333 237 683 c 24
 167 725 l 24
 177 768 l 24
 203 764 238 743 282 705 c 24
 302 687.666666667 317 666 327 640 c 24
 349 582 358.666666667 539.333333333 356 512 c 24
 347.333333333 412 324.666666667 312.333333333 288 213 c 24
 278 185.666666667 248.333333333 143 199 85 c 24
 171.666666667 53 146.666666667 32 124 22 c 24
 -10 -43 l 24
EndSplineSet
EndChar

StartChar: asterisk
Encoding: 42 42 9
Width: 345
VWidth: 1024
Flags: HW
LayerCount: 2
Fore
SplineSet
198 341 m 1
 227 469 l 1
 93 406 l 1
 103 449 l 1
 238 512 l 1
 133 575 l 1
 142 618 l 1
 247 555 l 1
 276 683 l 1
 316 683 l 1
 287 555 l 1
 421 618 l 1
 411 575 l 1
 278 512 l 1
 382 449 l 1
 372 406 l 1
 267 469 l 1
 238 341 l 1
 198 341 l 1
EndSplineSet
EndChar

StartChar: plus
Encoding: 43 43 10
Width: 424
VWidth: 1024
Flags: HW
LayerCount: 2
Fore
SplineSet
208 213 m 5
 248 384 l 5
 89 384 l 5
 98 427 l 5
 258 427 l 5
 297 597 l 5
 336 597 l 5
 297 427 l 5
 456 427 l 5
 445 384 l 5
 287 384 l 5
 247 213 l 5
 208 213 l 5
EndSplineSet
EndChar

StartChar: comma
Encoding: 44 44 11
Width: 186
VWidth: 1024
Flags: HW
LayerCount: 2
Fore
SplineSet
20 -85 m 1
 30 -43 l 1
 59 -29 l 1
 79 0 l 1
 40 0 l 1
 10 43 l 1
 19 85 l 1
 70 128 l 1
 109 128 l 1
 138 85 l 1
 119 0 l 1
 89 -43 l 1
 39 -85 l 1
 20 -85 l 1
EndSplineSet
EndChar

StartChar: hyphen
Encoding: 45 45 12
Width: 424
VWidth: 1024
Flags: HW
LayerCount: 2
Fore
SplineSet
89 384 m 1
 98 427 l 1
 456 427 l 1
 445 384 l 1
 89 384 l 1
EndSplineSet
EndChar

StartChar: period
Encoding: 46 46 13
Width: 186
VWidth: 1024
Flags: HW
LayerCount: 2
Fore
SplineSet
40 0 m 5
 10 43 l 5
 19 85 l 5
 70 128 l 5
 109 128 l 5
 138 85 l 5
 129 43 l 5
 79 0 l 5
 40 0 l 5
EndSplineSet
EndChar

StartChar: slash
Encoding: 47 47 14
Width: 463
VWidth: 1024
Flags: HW
LayerCount: 2
Fore
SplineSet
0 0 m 1
 505 725 l 1
 545 725 l 1
 40 0 l 1
 0 0 l 1
EndSplineSet
EndChar

StartChar: zero
Encoding: 48 48 15
Width: 583
VWidth: 1024
Flags: HW
LayerCount: 2
Fore
SplineSet
288 43 m 24
 335.333333333 59 365 73 377 85 c 24
 430.333333333 139.666666667 470 196.666666667 496 256 c 24
 526.666666667 326.666666667 543 397.666666667 545 469 c 24
 546.333333333 528.333333333 533 585.333333333 505 640 c 24
 498.333333333 652.666666667 475.333333333 667 436 683 c 24
 424 687.666666667 410.666666667 687.666666667 396 683 c 24
 348.666666667 667 319 652.666666667 307 640 c 24
 253.666666667 585.333333333 213.666666667 528.333333333 187 469 c 24
 156.333333333 398.333333333 140 327.333333333 138 256 c 24
 136.666666667 196.666666667 150.333333333 139.666666667 179 85 c 24
 185.666666667 72.3333333333 208.666666667 58.3333333333 248 43 c 24
 260 38.3333333333 273.333333333 38.3333333333 288 43 c 24
239 0 m 24
 197.666666667 18 162.666666667 39 134 63 c 24
 114 80.3333333333 99 102 89 128 c 24
 67 183.333333333 57 226 59 256 c 24
 62.3333333333 326.666666667 79 397.666666667 109 469 c 24
 120.333333333 498.333333333 149.666666667 541 197 597 c 24
 219 622.333333333 244 644 272 662 c 24
 311.333333333 686.666666667 356 707.666666667 406 725 c 24
 420.666666667 730.333333333 433.666666667 730.333333333 445 725 c 24
 486.333333333 706.333333333 521.333333333 685.333333333 550 662 c 24
 570 644.666666667 584.666666667 623 594 597 c 24
 616 541.666666667 626.333333333 499 625 469 c 24
 621.666666667 398.333333333 605 327.333333333 575 256 c 24
 563.666666667 226.666666667 534 184 486 128 c 24
 464 102.666666667 439.333333333 81 412 63 c 24
 372.666666667 38.3333333333 328.333333333 17.3333333333 279 0 c 24
 264.333333333 -5.33333333333 251 -5.33333333333 239 0 c 24
EndSplineSet
EndChar

StartChar: one
Encoding: 49 49 16
Width: 226
VWidth: 1024
Flags: HW
LayerCount: 2
Fore
SplineSet
79 0 m 5
 217 597 l 5
 138 597 l 5
 142 618 l 5
 231 662 l 5
 306 725 l 5
 327 725 l 5
 159 0 l 5
 79 0 l 5
EndSplineSet
EndChar

StartChar: two
Encoding: 50 50 17
Width: 504
VWidth: 1024
Flags: HW
LayerCount: 2
Fore
SplineSet
0 0 m 1
 14 63 l 1
 337 341 l 28
 369 372.333333333 398.333333333 415 425 469 c 28
 437.666666667 495 444.333333333 523.666666667 445 555 c 28
 445 577.666666667 438.666666667 606 426 640 c 28
 416 665.333333333 405.666666667 679.666666667 395 683 c 28
 358.333333333 693.666666667 318.666666667 693.666666667 276 683 c 28
 142 618 l 1
 153 662 l 1
 287 725 l 28
 324.333333333 734.333333333 364 734.333333333 406 725 c 28
 424 721 447 707 475 683 c 28
 487.666666667 671.666666667 497.666666667 657.333333333 505 640 c 28
 517.666666667 606.666666667 524.333333333 578.333333333 525 555 c 28
 525 526.333333333 518.666666667 497.666666667 506 469 c 28
 489.333333333 434.333333333 469 406 445 384 c 28
 98 85 l 1
 377 85 l 1
 427 128 l 1
 466 128 l 1
 377 0 l 1
 0 0 l 1
EndSplineSet
EndChar

StartChar: three
Encoding: 51 51 18
Width: 464
VWidth: 1024
Flags: HW
LayerCount: 2
Fore
SplineSet
0 0 m 24
 -2 9.33333333333 8 23.6666666667 30 43 c 24
 50 43 l 24
 100 57.6666666667 142.666666667 71.6666666667 178 85 c 24
 214 99.6666666667 243.666666667 114 267 128 c 24
 285.666666667 139.333333333 302.333333333 153.666666667 317 171 c 24
 341.666666667 199.666666667 361.333333333 228 376 256 c 24
 383.333333333 270.666666667 386.666666667 285 386 299 c 24
 382.666666667 335 376.333333333 363.333333333 367 384 c 24
 363 392.666666667 351.333333333 400 332 406 c 24
 316.666666667 410 303.333333333 410 292 406 c 24
 158 341 l 24
 168 384 l 24
 346 469 l 24
 378 491.666666667 398.333333333 520.333333333 407 555 c 24
 410.333333333 569.666666667 403.333333333 598 386 640 c 24
 376.666666667 664.666666667 366.333333333 679 355 683 c 24
 331.666666667 691.666666667 305.333333333 691.666666667 276 683 c 24
 142 618 l 24
 153 662 l 24
 189 688.666666667 233.666666667 709.666666667 287 725 c 24
 313 732.333333333 339.333333333 732.333333333 366 725 c 24
 386 719.666666667 409.333333333 705.666666667 436 683 c 24
 448.666666667 671.666666667 458.333333333 657.333333333 465 640 c 24
 482.333333333 598 489 569.666666667 485 555 c 24
 482.333333333 543.666666667 462.333333333 515 425 469 c 24
 392 440 l 24
 416 427 l 24
 431.333333333 410.333333333 441 396 445 384 c 24
 455.666666667 356 462.666666667 327.666666667 466 299 c 24
 467.333333333 284.333333333 464.333333333 270 457 256 c 24
 441 227.333333333 420.666666667 199 396 171 c 24
 380 151.666666667 363.666666667 137.333333333 347 128 c 24
 295 99.3333333333 235.666666667 71 169 43 c 24
 128.333333333 25.6666666667 85.3333333333 11.3333333333 40 0 c 24
 15.3333333333 -6 2 -6 0 0 c 24
EndSplineSet
EndChar

StartChar: four
Encoding: 52 52 19
Width: 543
VWidth: 1024
Flags: HW
LayerCount: 2
Fore
SplineSet
347 299 m 1
 421 618 l 1
 148 299 l 1
 347 299 l 1
279 0 m 1
 332 234 l 1
 54 234 l 1
 59 256 l 1
 458 725 l 1
 524 725 l 1
 426 299 l 1
 446 299 l 1
 506 384 l 1
 545 384 l 1
 535 341 l 1
 476 256 l 1
 452 234 l 1
 412 234 l 1
 357 0 l 1
 279 0 l 1
EndSplineSet
EndChar

StartChar: five
Encoding: 53 53 20
Width: 464
VWidth: 1024
Flags: HW
LayerCount: 2
Fore
SplineSet
0 0 m 28
 -2 9.33333333333 8.33333333333 23.6666666667 31 43 c 28
 50 43 l 28
 100.666666667 57.6666666667 143.666666667 71.6666666667 179 85 c 28
 215 99.6666666667 244.666666667 114 268 128 c 28
 286.666666667 139.333333333 303 153.666666667 317 171 c 28
 341.666666667 199.666666667 361.666666667 228 377 256 c 28
 384.333333333 270.666666667 387.333333333 285 386 299 c 28
 384 327.666666667 377.666666667 356 367 384 c 28
 357.666666667 408.666666667 347.666666667 423 337 427 c 28
 318.333333333 433.666666667 292 433.666666667 258 427 c 28
 129 384 l 28
 76 384 l 1
 260 725 l 1
 484 725 l 1
 535 768 l 1
 574 768 l 1
 485 640 l 1
 267 640 l 1
 156 435 l 1
 227 469 l 28
 271.666666667 477 311.666666667 477 347 469 c 28
 365 465 388 451 416 427 c 28
 428.666666667 415.666666667 438.666666667 401.333333333 446 384 c 28
 456.666666667 356 463.666666667 327.666666667 467 299 c 28
 468.333333333 284.333333333 465 270 457 256 c 28
 441 227.333333333 421 199 397 171 c 28
 381 151.666666667 364.333333333 137.333333333 347 128 c 28
 295 99.3333333333 235.666666667 71 169 43 c 28
 128.333333333 25.6666666667 85.3333333333 11.3333333333 40 0 c 28
 15.3333333333 -6 2 -6 0 0 c 28
EndSplineSet
EndChar

StartChar: six
Encoding: 54 54 21
Width: 464
VWidth: 1024
Flags: HW
LayerCount: 2
Fore
SplineSet
248 43 m 28
 260 47 276.666666667 61 298 85 c 28
 329.333333333 121.666666667 348.666666667 150.333333333 356 171 c 28
 374 214.333333333 384 257 386 299 c 28
 386.666666667 319.666666667 380.333333333 348 367 384 c 28
 359 405.333333333 349 419.666666667 337 427 c 28
 329.666666667 431.666666667 316.333333333 431.666666667 297 427 c 28
 216.333333333 406.333333333 173.333333333 392 168 384 c 28
 146 352.666666667 129.666666667 281.666666667 119 171 c 28
 117.666666667 153 124.333333333 124.333333333 139 85 c 28
 148.333333333 60.3333333333 158.333333333 46.3333333333 169 43 c 28
 193 33.6666666667 219.333333333 33.6666666667 248 43 c 28
160 0 m 28
 140 5.33333333333 116.333333333 19.6666666667 89 43 c 28
 75.6666666667 53.6666666667 65.6666666667 67.6666666667 59 85 c 28
 43 124.333333333 36.6666666667 153 40 171 c 28
 54.6666666667 285.666666667 77.6666666667 385 109 469 c 28
 119 496.333333333 148.333333333 539 197 597 c 28
 213 615.666666667 238 637.333333333 272 662 c 28
 280.666666667 668.666666667 295.333333333 675.666666667 316 683 c 28
 393.333333333 711.666666667 436.333333333 725.666666667 445 725 c 28
 436 683 l 28
 307 640 l 28
 284.333333333 620.666666667 244.333333333 563.666666667 187 469 c 28
 178 427 l 28
 306 469 l 28
 322.666666667 473 336 473 346 469 c 28
 370 459.666666667 393.333333333 445.666666667 416 427 c 28
 428.666666667 415.666666667 438.666666667 401.333333333 446 384 c 28
 460.666666667 348 467.333333333 319.666666667 466 299 c 28
 464 255.666666667 454.333333333 213 437 171 c 28
 428.333333333 150.333333333 408.333333333 121.666666667 377 85 c 28
 362.333333333 67.6666666667 346 53.6666666667 328 43 c 28
 291.333333333 20.3333333333 261.666666667 6 239 0 c 28
 211.666666667 -6.66666666667 185.333333333 -6.66666666667 160 0 c 28
EndSplineSet
EndChar

StartChar: seven
Encoding: 55 55 22
Width: 503
VWidth: 1024
Flags: HW
LayerCount: 2
Fore
SplineSet
59 0 m 1
 505 640 l 1
 226 640 l 1
 217 597 l 1
 197 597 l 1
 167 725 l 1
 590 725 l 1
 198 0 l 1
 59 0 l 1
EndSplineSet
EndChar

StartChar: eight
Encoding: 56 56 23
Width: 504
VWidth: 1024
Flags: HW
LayerCount: 2
Fore
SplineSet
288 43 m 24
 298.666666667 45.6666666667 315 59.6666666667 337 85 c 24
 361 113.666666667 380.666666667 142.333333333 396 171 c 24
 403.333333333 185.666666667 407 199.666666667 407 213 c 24
 405 241.666666667 398 270.333333333 386 299 c 24
 378.666666667 319.666666667 369 333.666666667 357 341 c 24
 310.333333333 369.666666667 274 384 248 384 c 24
 239.333333333 384 222.666666667 369.666666667 198 341 c 24
 169.333333333 307.666666667 149.333333333 279.333333333 138 256 c 24
 125.333333333 227.333333333 119 199 119 171 c 24
 119.666666667 147 126.333333333 118.333333333 139 85 c 24
 149 59.6666666667 159 45.6666666667 169 43 c 24
 207 33 246.666666667 33 288 43 c 24
361 433 m 24
 445 555 l 24
 451.666666667 566.333333333 455 580.333333333 455 597 c 24
 455 607.666666667 451.666666667 622 445 640 c 24
 441 649.333333333 436.333333333 656.666666667 431 662 c 24
 418.333333333 673.333333333 406.666666667 680.333333333 396 683 c 24
 383.333333333 686.333333333 370 686.333333333 356 683 c 24
 345.333333333 680.333333333 330.666666667 673.333333333 312 662 c 24
 302.666666667 656 294.333333333 648.666666667 287 640 c 24
 272.333333333 623.333333333 262.333333333 609 257 597 c 24
 249.666666667 581 246.333333333 567 247 555 c 24
 250.333333333 509.666666667 257 481 267 469 c 24
 267.666666667 468.333333333 292 458.666666667 340 440 c 24
 361 433 l 24
159 0 m 24
 141 4 117.666666667 18.3333333333 89 43 c 24
 76.3333333333 53 66.3333333333 67 59 85 c 24
 45.6666666667 119 39.3333333333 147.666666667 40 171 c 24
 40 200.333333333 46.3333333333 228.666666667 59 256 c 24
 69 278 89 306.333333333 119 341 c 24
 132.333333333 357.666666667 148.666666667 372 168 384 c 24
 227 413 l 24
 187 469 l 24
 177 494.333333333 170.666666667 523 168 555 c 24
 166.666666667 568.333333333 170 582.333333333 178 597 c 24
 201.333333333 641 221 669.666666667 237 683 c 24
 261 704.333333333 291 718.333333333 327 725 c 24
 369 733 408.333333333 733 445 725 c 24
 476.333333333 718.333333333 499.666666667 704.333333333 515 683 c 24
 525 668.333333333 532 639.666666667 536 597 c 24
 537.333333333 582.333333333 533.666666667 568.333333333 525 555 c 24
 509.666666667 526.333333333 490 497.666666667 466 469 c 24
 459.333333333 461.666666667 442.666666667 447.666666667 416 427 c 24
 398 418 l 24
 413 413 l 24
 428.333333333 402.333333333 439 392.666666667 445 384 c 24
 461 366.666666667 471.333333333 352.333333333 476 341 c 24
 488.666666667 308.333333333 495.333333333 280 496 256 c 24
 496 227.333333333 489.333333333 199 476 171 c 24
 464.666666667 146.333333333 445 117.666666667 417 85 c 24
 402.333333333 68.3333333333 386 54.3333333333 368 43 c 24
 327.333333333 17.6666666667 297.666666667 3.33333333333 279 0 c 24
 237 -8.66666666667 197 -8.66666666667 159 0 c 24
EndSplineSet
EndChar

StartChar: nine
Encoding: 57 57 24
Width: 464
VWidth: 1024
Flags: HW
LayerCount: 2
Fore
SplineSet
267 299 m 24
 347.666666667 319.666666667 390.666666667 333.666666667 396 341 c 24
 418 372.333333333 434.333333333 443.666666667 445 555 c 24
 447 573.666666667 440.666666667 602 426 640 c 24
 416.666666667 664.666666667 406.666666667 679 396 683 c 24
 371.333333333 692.333333333 344.666666667 692.333333333 316 683 c 24
 304 679 287.666666667 664.666666667 267 640 c 24
 235.666666667 604 215.666666667 575.666666667 207 555 c 24
 189 511.666666667 179.333333333 469 178 427 c 24
 177.333333333 407 184 378.333333333 198 341 c 24
 206 319.666666667 216 305.666666667 228 299 c 24
 234.666666667 294.333333333 247.666666667 294.333333333 267 299 c 24
119 0 m 24
 129 43 l 24
 258 85 l 24
 280.666666667 104.333333333 320.333333333 161.333333333 377 256 c 24
 395 284.666666667 398 299 386 299 c 24
 257 256 l 24
 240.333333333 252 227.333333333 252 218 256 c 24
 193.333333333 265.333333333 170 279.666666667 148 299 c 24
 134.666666667 309.666666667 125 323.666666667 119 341 c 24
 104.333333333 377 97.3333333333 405.666666667 98 427 c 24
 100 469 110 511.666666667 128 555 c 24
 136.666666667 575.666666667 156.333333333 604 187 640 c 24
 201.666666667 657.333333333 218.333333333 671.666666667 237 683 c 24
 273.666666667 706.333333333 303.666666667 720.333333333 327 725 c 24
 355 731.666666667 381.333333333 731.666666667 406 725 c 24
 426 719.666666667 449 705.666666667 475 683 c 24
 487.666666667 671.666666667 497.666666667 657.333333333 505 640 c 24
 521 600.666666667 527.666666667 572.333333333 525 555 c 24
 510.333333333 440.333333333 487.666666667 340.666666667 457 256 c 24
 447 228.666666667 417 186 367 128 c 24
 351.666666667 109.333333333 327 87.6666666667 293 63 c 24
 283.666666667 56.3333333333 268.666666667 49.6666666667 248 43 c 24
 119 0 l 24
EndSplineSet
EndChar

StartChar: colon
Encoding: 58 58 25
Width: 186
VWidth: 1024
Flags: HW
LayerCount: 2
Fore
SplineSet
59 85 m 5
 30 128 l 5
 40 171 l 5
 89 213 l 5
 128 213 l 5
 159 171 l 5
 148 128 l 5
 98 85 l 5
 59 85 l 5
129 384 m 5
 98 427 l 5
 109 469 l 5
 158 512 l 5
 198 512 l 5
 227 469 l 5
 218 427 l 5
 168 384 l 5
 129 384 l 5
EndSplineSet
EndChar

StartChar: semicolon
Encoding: 59 59 26
Width: 186
VWidth: 1024
Flags: HW
LayerCount: 2
Fore
SplineSet
40 0 m 1
 50 43 l 1
 79 56 l 1
 98 85 l 1
 59 85 l 1
 30 128 l 1
 40 171 l 1
 89 213 l 1
 128 213 l 1
 159 171 l 1
 138 85 l 1
 109 43 l 1
 59 0 l 1
 40 0 l 1
129 384 m 1
 98 427 l 1
 109 469 l 1
 158 512 l 1
 198 512 l 1
 227 469 l 1
 218 427 l 1
 168 384 l 1
 129 384 l 1
EndSplineSet
EndChar

StartChar: less
Encoding: 60 60 27
Width: 386
VWidth: 1024
Flags: HW
LayerCount: 2
Fore
SplineSet
361 193 m 5
 84 362 l 5
 93 406 l 5
 450 575 l 5
 440 534 l 5
 129 384 l 5
 372 234 l 5
 361 193 l 5
EndSplineSet
EndChar

StartChar: equal
Encoding: 61 61 28
Width: 424
VWidth: 1024
Flags: HW
LayerCount: 2
Fore
SplineSet
69 299 m 1
 79 341 l 1
 436 341 l 1
 426 299 l 1
 69 299 l 1
98 427 m 1
 109 469 l 1
 465 469 l 1
 456 427 l 1
 98 427 l 1
EndSplineSet
EndChar

StartChar: greater
Encoding: 62 62 29
Width: 386
VWidth: 1024
Flags: HW
LayerCount: 2
Fore
SplineSet
44 193 m 1
 54 234 l 1
 367 384 l 1
 123 534 l 1
 133 575 l 1
 411 406 l 1
 400 362 l 1
 44 193 l 1
EndSplineSet
EndChar

StartChar: question
Encoding: 63 63 30
Width: 543
VWidth: 1024
Flags: HW
LayerCount: 2
Fore
SplineSet
218 0 m 5
 189 43 l 5
 199 85 l 5
 248 128 l 5
 288 128 l 5
 316 85 l 5
 307 43 l 5
 258 0 l 5
 218 0 l 5
248 213 m 5
 257 256 l 28
 264.333333333 273.333333333 274.666666667 287.666666667 288 299 c 28
 436 427 l 28
 456 447.666666667 476 476 496 512 c 28
 503.333333333 526.666666667 506.666666667 541 506 555 c 28
 504 583.666666667 497 612 485 640 c 28
 475.666666667 665.333333333 465.666666667 679.666666667 455 683 c 28
 427.666666667 691.666666667 394.666666667 691.666666667 356 683 c 28
 267 640 l 28
 242 618 l 28
 257 597 l 28
 258.333333333 579.666666667 255.333333333 565.666666667 248 555 c 28
 235.333333333 535.666666667 218.666666667 521.333333333 198 512 c 28
 182.666666667 505.333333333 169.666666667 505.333333333 159 512 c 28
 143 521.333333333 132.666666667 535.666666667 128 555 c 28
 124 571.666666667 127.333333333 585.666666667 138 597 c 28
 162.666666667 625 195.666666667 653.666666667 237 683 c 28
 272.333333333 707.666666667 302.333333333 721.666666667 327 725 c 28
 381.666666667 734.333333333 434 734.333333333 484 725 c 28
 501.333333333 721.666666667 525 707.666666667 555 683 c 28
 567.666666667 671.666666667 577.333333333 657.333333333 584 640 c 28
 595.333333333 612 602 583.666666667 604 555 c 28
 604.666666667 543 601.666666667 528.666666667 595 512 c 28
 587 494 576.666666667 479.666666667 564 469 c 28
 367 299 l 28
 307 213 l 5
 248 213 l 5
EndSplineSet
EndChar

StartChar: at
Encoding: 64 64 31
Width: 662
VWidth: 1024
Flags: HW
LayerCount: 2
Fore
SplineSet
367 213 m 24
 412 234 l 24
 420.666666667 239.333333333 428.666666667 246.666666667 436 256 c 24
 452.666666667 276 462.666666667 290.333333333 466 299 c 24
 481.333333333 341 491.333333333 383.666666667 496 427 c 24
 496.666666667 435.666666667 493 449.666666667 485 469 c 24
 481.666666667 477 477 484 471 490 c 24
 453 505.333333333 441 512.666666667 435 512 c 24
 402.333333333 506.666666667 372.666666667 492.333333333 346 469 c 24
 329.333333333 454.333333333 309.666666667 426 287 384 c 24
 279.666666667 369.333333333 276.666666667 355 278 341 c 24
 281.333333333 299 287.666666667 270.666666667 297 256 c 24
 367 213 l 24
239 0 m 24
 211.666666667 6.66666666667 176.666666667 27.6666666667 134 63 c 24
 114 80.3333333333 99 102 89 128 c 24
 67 183.333333333 57 226 59 256 c 24
 62.3333333333 326.666666667 79 397.666666667 109 469 c 24
 120.333333333 498.333333333 149.666666667 541 197 597 c 24
 219 622.333333333 244 644 272 662 c 24
 327.333333333 696 372 717 406 725 c 24
 447.333333333 735.666666667 486.666666667 735.666666667 524 725 c 24
 554 717 589 696 629 662 c 24
 648.333333333 644.666666667 663 623 673 597 c 24
 695 541.666666667 705 499 703 469 c 24
 700.333333333 424.333333333 684 353.333333333 654 256 c 24
 651.333333333 248 641.666666667 233.666666667 625 213 c 24
 618.333333333 205 610 198.333333333 600 193 c 24
 579.333333333 180.333333333 564.666666667 173 556 171 c 24
 528 166.333333333 501.333333333 166.333333333 476 171 c 24
 441 193 l 24
 397 171 l 24
 369 166.333333333 342.333333333 166.333333333 317 171 c 24
 305.666666667 173 294.333333333 180.333333333 283 193 c 24
 265.666666667 212.333333333 251 233.333333333 239 256 c 24
 231 272 227.333333333 286.333333333 228 299 c 24
 232.666666667 342.333333333 242.666666667 385 258 427 c 24
 262.666666667 439.666666667 272.666666667 453.666666667 288 469 c 24
 311.333333333 493 335.666666667 514.666666667 361 534 c 24
 377.666666667 545.333333333 393 552.333333333 407 555 c 24
 435 559.666666667 461 559.666666667 485 555 c 24
 493.666666667 553.666666667 505.333333333 546.666666667 520 534 c 24
 526.666666667 528.666666667 532 521.333333333 536 512 c 24
 544 491.333333333 547 477 545 469 c 24
 496 256 l 24
 495.333333333 245.333333333 505 231 525 213 c 24
 531 207.666666667 538 207.666666667 546 213 c 24
 561.333333333 225.666666667 571 240 575 256 c 24
 607 359.333333333 623.666666667 430.333333333 625 469 c 24
 626.333333333 528.333333333 612.666666667 585.333333333 584 640 c 24
 574 660.666666667 551 675 515 683 c 24
 477.666666667 691 438 691 396 683 c 24
 356 675 326.333333333 660.666666667 307 640 c 24
 253.666666667 585.333333333 213.666666667 528.333333333 187 469 c 24
 156.333333333 398.333333333 140 327.333333333 138 256 c 24
 136.666666667 196.666666667 150.333333333 139.666666667 179 85 c 24
 190.333333333 63 213.333333333 49 248 43 c 24
 298.666666667 33.6666666667 352 33.6666666667 408 43 c 24
 434.666666667 47.6666666667 464 61.6666666667 496 85 c 24
 526 128 l 1
 585 128 l 1
 580 106 l 1
 531 63 l 24
 467.666666667 26.3333333333 423 5.33333333333 397 0 c 24
 341.666666667 -12 289 -12 239 0 c 24
EndSplineSet
EndChar

StartChar: A
Encoding: 65 65 32
Width: 781
VWidth: 1024
Flags: HW
LayerCount: 2
Fore
SplineSet
525 213 m 1
 451 534 l 1
 228 213 l 1
 525 213 l 1
0 0 m 1
 5 22 l 1
 50 43 l 1
 435 597 l 1
 416 683 l 1
 436 683 l 1
 480 705 l 1
 505 725 l 1
 660 56 l 1
 719 22 l 1
 715 0 l 1
 476 0 l 1
 481 22 l 1
 561 59 l 1
 536 171 l 1
 199 171 l 1
 115 51 l 1
 164 22 l 1
 159 0 l 1
 0 0 l 1
EndSplineSet
EndChar

StartChar: B
Encoding: 66 66 33
Width: 583
VWidth: 1024
Flags: HW
LayerCount: 2
Fore
SplineSet
367 43 m 24
 374.333333333 43 389.333333333 49.6666666667 412 63 c 24
 421.333333333 68.3333333333 429.666666667 75.6666666667 437 85 c 24
 453 104.333333333 462.666666667 118.666666667 466 128 c 24
 476.666666667 156.666666667 483 185 485 213 c 24
 485.666666667 222.333333333 482.666666667 236.666666667 476 256 c 24
 472.666666667 264 467.666666667 271.333333333 461 278 c 24
 445 291.333333333 433.333333333 298.333333333 426 299 c 24
 228 299 l 1
 169 43 l 1
 367 43 l 24
396 341 m 24
 406.666666667 343 423 357.333333333 445 384 c 24
 473.666666667 418 494 446.333333333 506 469 c 24
 518.666666667 497.666666667 525 526.333333333 525 555 c 24
 525 577.666666667 518.333333333 606 505 640 c 24
 495.666666667 666 485.666666667 680.333333333 475 683 c 24
 316 683 l 1
 238 341 l 1
 396 341 l 24
0 0 m 1
 5 22 l 1
 94 63 l 1
 231 662 l 1
 163 705 l 1
 167 725 l 1
 484 725 l 24
 499.333333333 723.666666667 523 709.666666667 555 683 c 24
 567.666666667 671.666666667 577.333333333 657.333333333 584 640 c 24
 596.666666667 606.666666667 603.333333333 578.333333333 604 555 c 24
 604 526.333333333 597.666666667 497.666666667 585 469 c 24
 575 446.333333333 555 418 525 384 c 24
 476 341 l 24
 510 319 l 24
 528 299.666666667 543 278.666666667 555 256 c 24
 562.333333333 240.666666667 565.666666667 226.333333333 565 213 c 24
 563 184.333333333 556.666666667 156 546 128 c 24
 541.333333333 114.666666667 531.333333333 100.333333333 516 85 c 24
 492.666666667 61 467.666666667 40 441 22 c 24
 421.666666667 8.66666666667 407 1.33333333333 397 0 c 24
 0 0 l 1
EndSplineSet
EndChar

StartChar: C
Encoding: 67 67 34
Width: 623
VWidth: 1024
Flags: HW
LayerCount: 2
Fore
SplineSet
239 0 m 24
 209 8 174 29 134 63 c 24
 114 80.3333333333 99 102 89 128 c 24
 67 183.333333333 57 226 59 256 c 24
 62.3333333333 326.666666667 79 397.666666667 109 469 c 24
 120.333333333 498.333333333 149.666666667 541 197 597 c 24
 219 622.333333333 244 644 272 662 c 24
 327.333333333 696 372 717 406 725 c 24
 447.333333333 735 486.666666667 735 524 725 c 24
 622 666 l 24
 664 725 l 1
 684 725 l 1
 644 555 l 1
 604 555 l 24
 584 640 l 24
 568.666666667 661.333333333 545.666666667 675.666666667 515 683 c 24
 477.666666667 691 438 691 396 683 c 24
 356 675 326.333333333 660.666666667 307 640 c 24
 253.666666667 585.333333333 213.666666667 528.333333333 187 469 c 24
 156.333333333 398.333333333 140 327.333333333 138 256 c 24
 136.666666667 196.666666667 150.333333333 139.666666667 179 85 c 24
 189 64.3333333333 212 50.3333333333 248 43 c 24
 292 33 332 33 368 43 c 24
 546 128 l 1
 585 128 l 1
 580 106 l 1
 357 0 l 24
 319 -11.3333333333 279.666666667 -11.3333333333 239 0 c 24
EndSplineSet
EndChar

StartChar: D
Encoding: 68 68 35
Width: 623
VWidth: 1024
Flags: HW
LayerCount: 2
Fore
SplineSet
327 43 m 28
 364.333333333 49 394.333333333 63 417 85 c 28
 470.333333333 139.666666667 510 196.666666667 536 256 c 28
 566.666666667 326.666666667 583 397.666666667 585 469 c 28
 586.333333333 528.333333333 573 585.333333333 545 640 c 28
 533.666666667 662 510.333333333 676.333333333 475 683 c 28
 316 683 l 1
 169 43 l 1
 327 43 l 28
0 0 m 1
 5 22 l 1
 94 63 l 1
 231 662 l 1
 163 705 l 1
 167 725 l 1
 484 725 l 28
 508 721.666666667 543 700.666666667 589 662 c 28
 609 644.666666667 624 623 634 597 c 28
 656 541.666666667 666 499 664 469 c 28
 660.666666667 398.333333333 644 327.333333333 614 256 c 28
 602.666666667 226.666666667 573 184 525 128 c 28
 503 102.666666667 478.333333333 81 451 63 c 28
 387.666666667 24.3333333333 343 3.33333333333 317 0 c 28
 0 0 l 1
EndSplineSet
EndChar

StartChar: E
Encoding: 69 69 36
Width: 543
VWidth: 1024
Flags: HW
LayerCount: 2
Fore
SplineSet
0 0 m 1
 5 22 l 1
 94 63 l 1
 231 662 l 1
 163 705 l 1
 167 725 l 1
 564 725 l 1
 608 746 l 1
 574 597 l 1
 555 597 l 1
 545 640 l 1
 475 683 l 1
 316 683 l 1
 248 384 l 1
 386 384 l 1
 445 469 l 1
 465 469 l 1
 416 256 l 1
 396 256 l 1
 376 341 l 1
 238 341 l 1
 169 43 l 1
 367 43 l 1
 456 85 l 1
 485 128 l 1
 506 128 l 1
 476 0 l 1
 0 0 l 1
EndSplineSet
EndChar

StartChar: F
Encoding: 70 70 37
Width: 504
VWidth: 1024
Flags: HW
LayerCount: 2
Fore
SplineSet
0 0 m 1
 5 22 l 1
 94 63 l 1
 231 662 l 1
 163 705 l 1
 167 725 l 1
 564 725 l 1
 608 746 l 1
 574 597 l 1
 555 597 l 1
 545 640 l 1
 475 683 l 1
 316 683 l 1
 248 384 l 1
 386 384 l 1
 445 469 l 1
 465 469 l 1
 416 256 l 1
 396 256 l 1
 376 341 l 1
 238 341 l 1
 174 63 l 1
 243 22 l 1
 238 0 l 1
 0 0 l 1
EndSplineSet
EndChar

StartChar: G
Encoding: 71 71 38
Width: 662
VWidth: 1024
Flags: HW
LayerCount: 2
Fore
SplineSet
240 7 m 24
 206 15.6666666667 170.666666667 34.3333333333 134 63 c 24
 114 79 99 100.666666667 89 128 c 24
 67 183.333333333 57 226 59 256 c 24
 62.3333333333 326.666666667 79 397.666666667 109 469 c 24
 120.333333333 498.333333333 149.666666667 541 197 597 c 24
 219 622.333333333 244 644 272 662 c 24
 327.333333333 696 372 717 406 725 c 24
 447.333333333 735 486.666666667 735 524 725 c 24
 622 666 l 24
 664 725 l 1
 684 725 l 1
 644 555 l 1
 604 555 l 1
 584 640 l 24
 568.666666667 661.333333333 545.666666667 675.666666667 515 683 c 24
 477.666666667 691 438 691 396 683 c 24
 356 675 326.333333333 660.666666667 307 640 c 24
 253.666666667 585.333333333 213.666666667 528.333333333 187 469 c 24
 156.333333333 398.333333333 140 327.333333333 138 256 c 24
 136.666666667 196.666666667 150.333333333 139.666666667 179 85 c 24
 189 64.3333333333 212 50.3333333333 248 43 c 24
 286 35 326 35 368 43 c 24
 402.666666667 49.6666666667 432 63.6666666667 456 85 c 24
 481.333333333 107 501.333333333 135.666666667 516 171 c 24
 550 319 l 1
 481 362 l 1
 486 384 l 1
 644 384 l 1
 595 171 l 1
 630 150 l 1
 625 128 l 1
 359 7 l 24
 323.666666667 -3.66666666667 284 -3.66666666667 240 7 c 24
EndSplineSet
EndChar

StartChar: H
Encoding: 72 72 39
Width: 702
VWidth: 1024
Flags: HW
LayerCount: 2
Fore
SplineSet
0 0 m 1
 5 22 l 1
 94 63 l 1
 231 662 l 1
 163 705 l 1
 167 725 l 1
 406 725 l 1
 400 705 l 1
 311 662 l 1
 248 384 l 1
 565 384 l 1
 629 662 l 1
 560 705 l 1
 564 725 l 1
 803 725 l 1
 798 705 l 1
 708 662 l 1
 570 63 l 1
 640 22 l 1
 635 0 l 1
 397 0 l 1
 402 22 l 1
 490 63 l 1
 555 341 l 1
 238 341 l 1
 174 63 l 1
 243 22 l 1
 238 0 l 1
 0 0 l 1
EndSplineSet
EndChar

StartChar: I
Encoding: 73 73 40
Width: 305
VWidth: 1024
Flags: HW
LayerCount: 2
Fore
SplineSet
0 0 m 1
 5 22 l 1
 94 63 l 1
 231 662 l 1
 163 705 l 1
 167 725 l 1
 406 725 l 1
 400 705 l 1
 311 662 l 1
 174 63 l 1
 243 22 l 1
 238 0 l 1
 0 0 l 1
EndSplineSet
EndChar

StartChar: J
Encoding: 74 74 41
Width: 424
VWidth: 1024
Flags: HW
LayerCount: 2
Fore
SplineSet
40 -171 m 24
 30 -168.333333333 18.3333333333 -161.333333333 5 -150 c 24
 -1.66666666667 -144.666666667 -6.33333333333 -137.333333333 -9 -128 c 24
 -17 -106.666666667 -20.3333333333 -92.3333333333 -19 -85 c 24
 -15 -65.6666666667 -5.33333333333 -51.6666666667 10 -43 c 24
 19.3333333333 -37 32.3333333333 -37 49 -43 c 24
 55.6666666667 -45.6666666667 61 -52.3333333333 65 -63 c 24
 59 -85 l 24
 60.3333333333 -107.666666667 63.3333333333 -119 68 -119 c 24
 90.6666666667 -119 114.333333333 -107.666666667 139 -85 c 24
 170.333333333 -56.3333333333 190 -28 198 0 c 24
 351 662 l 1
 282 705 l 1
 287 725 l 1
 524 725 l 1
 520 705 l 1
 431 662 l 1
 288 43 l 24
 280.666666667 18.3333333333 251 -24.3333333333 199 -85 c 24
 183 -103.666666667 158.333333333 -125.333333333 125 -150 c 24
 110.333333333 -160 95.3333333333 -167 80 -171 c 24
 65.3333333333 -174.333333333 52 -174.333333333 40 -171 c 24
EndSplineSet
EndChar

StartChar: K
Encoding: 75 75 42
Width: 662
VWidth: 1024
Flags: HW
LayerCount: 2
Fore
SplineSet
0 0 m 1
 5 22 l 1
 94 63 l 1
 231 662 l 1
 163 705 l 1
 167 725 l 1
 406 725 l 1
 400 705 l 1
 311 662 l 1
 248 384 l 1
 594 683 l 1
 560 705 l 1
 564 725 l 1
 723 725 l 1
 718 705 l 1
 629 662 l 1
 307 384 l 1
 530 63 l 1
 600 22 l 1
 595 0 l 1
 397 0 l 1
 402 22 l 1
 446 43 l 1
 238 341 l 1
 174 63 l 1
 243 22 l 1
 238 0 l 1
 0 0 l 1
EndSplineSet
EndChar

StartChar: L
Encoding: 76 76 43
Width: 543
VWidth: 1024
Flags: HW
LayerCount: 2
Fore
SplineSet
0 0 m 1
 5 22 l 1
 94 63 l 1
 231 662 l 1
 163 705 l 1
 167 725 l 1
 406 725 l 1
 400 705 l 1
 311 662 l 1
 169 43 l 1
 367 43 l 1
 456 85 l 1
 485 128 l 1
 506 128 l 1
 476 0 l 1
 0 0 l 1
EndSplineSet
EndChar

StartChar: M
Encoding: 77 77 44
Width: 941
VWidth: 1024
Flags: HW
LayerCount: 2
Fore
SplineSet
0 0 m 1
 5 22 l 1
 94 63 l 1
 231 662 l 1
 163 705 l 1
 167 725 l 1
 327 725 l 1
 466 128 l 1
 882 725 l 1
 1040 725 l 1
 1036 705 l 1
 946 662 l 1
 808 63 l 1
 879 22 l 1
 873 0 l 1
 635 0 l 1
 640 22 l 1
 729 63 l 1
 852 597 l 1
 436 0 l 1
 397 0 l 1
 257 597 l 1
 134 63 l 1
 203 22 l 1
 198 0 l 1
 0 0 l 1
EndSplineSet
EndChar

StartChar: N
Encoding: 78 78 45
Width: 702
VWidth: 1024
Flags: HW
LayerCount: 2
Fore
SplineSet
0 0 m 1
 5 22 l 1
 94 63 l 1
 231 662 l 1
 163 705 l 1
 167 725 l 1
 339 725 l 1
 556 171 l 1
 669 662 l 1
 599 705 l 1
 603 725 l 1
 803 725 l 1
 798 705 l 1
 708 662 l 1
 555 0 l 1
 516 0 l 1
 267 640 l 1
 134 63 l 1
 203 22 l 1
 198 0 l 1
 0 0 l 1
EndSplineSet
EndChar

StartChar: O
Encoding: 79 79 46
Width: 663
VWidth: 1024
Flags: HW
LayerCount: 2
Fore
SplineSet
368 43 m 28
 407.333333333 51 436.666666667 65 456 85 c 28
 509.333333333 139.666666667 549 196.666666667 575 256 c 28
 605.666666667 326.666666667 622.333333333 397.666666667 625 469 c 28
 626.333333333 528.333333333 612.666666667 585.333333333 584 640 c 28
 574 660.666666667 551 675 515 683 c 28
 477.666666667 691 438 691 396 683 c 28
 356 675 326.333333333 660.666666667 307 640 c 28
 253.666666667 585.333333333 213.666666667 528.333333333 187 469 c 28
 156.333333333 398.333333333 140 327.333333333 138 256 c 28
 136.666666667 196.666666667 150.333333333 139.666666667 179 85 c 28
 189 64.3333333333 212 50.3333333333 248 43 c 28
 287.333333333 35 327.333333333 35 368 43 c 28
239 0 m 28
 209 8 174 29 134 63 c 28
 114 80.3333333333 99 102 89 128 c 28
 67 183.333333333 57 226 59 256 c 28
 62.3333333333 326.666666667 79 397.666666667 109 469 c 28
 120.333333333 498.333333333 149.666666667 541 197 597 c 28
 219 622.333333333 244 644 272 662 c 28
 327.333333333 696 372 717 406 725 c 28
 447.333333333 735.666666667 486.666666667 735.666666667 524 725 c 28
 554 717 589 696 629 662 c 28
 648.333333333 644.666666667 663 623 673 597 c 28
 695 541.666666667 705 499 703 469 c 28
 699.666666667 398.333333333 683.333333333 327.333333333 654 256 c 28
 642 226.666666667 612.333333333 184 565 128 c 28
 543 102.666666667 518.666666667 81 492 63 c 28
 436.666666667 29 391.666666667 8 357 0 c 28
 315 -10.6666666667 275.666666667 -10.6666666667 239 0 c 28
EndSplineSet
EndChar

StartChar: P
Encoding: 80 80 47
Width: 543
VWidth: 1024
Flags: HW
LayerCount: 2
Fore
SplineSet
396 341 m 28
 406.666666667 343 423 357.333333333 445 384 c 28
 473.666666667 418 494 446.333333333 506 469 c 28
 518.666666667 497.666666667 525 526.333333333 525 555 c 28
 525 577.666666667 518.333333333 606 505 640 c 28
 495.666666667 666 485.666666667 680.333333333 475 683 c 28
 316 683 l 1
 238 341 l 1
 396 341 l 28
0 0 m 1
 5 22 l 1
 94 63 l 1
 231 662 l 1
 163 705 l 1
 167 725 l 1
 484 725 l 28
 499.333333333 723.666666667 523 709.666666667 555 683 c 28
 567.666666667 671.666666667 577.333333333 657.333333333 584 640 c 28
 596.666666667 606.666666667 603.333333333 578.333333333 604 555 c 28
 604 526.333333333 597.666666667 497.666666667 585 469 c 28
 575 446.333333333 555 418 525 384 c 28
 510.333333333 366.666666667 494 352.333333333 476 341 c 28
 434.666666667 315.666666667 404.666666667 301.666666667 386 299 c 28
 228 299 l 1
 174 63 l 1
 243 22 l 1
 238 0 l 1
 0 0 l 1
EndSplineSet
EndChar

StartChar: Q
Encoding: 81 81 48
Width: 663
VWidth: 1024
Flags: HW
LayerCount: 2
Fore
SplineSet
368 43 m 24
 407.333333333 51 436.666666667 65 456 85 c 24
 509.333333333 139.666666667 549 196.666666667 575 256 c 24
 605.666666667 326.666666667 622.333333333 397.666666667 625 469 c 24
 626.333333333 528.333333333 612.666666667 585.333333333 584 640 c 24
 574 660.666666667 551 675 515 683 c 24
 477.666666667 691 438 691 396 683 c 24
 356 675 326.333333333 660.666666667 307 640 c 24
 253.666666667 585.333333333 213.666666667 528.333333333 187 469 c 24
 156.333333333 398.333333333 140 327.333333333 138 256 c 24
 136.666666667 196.666666667 150.333333333 139.666666667 179 85 c 24
 189 64.3333333333 212 50.3333333333 248 43 c 24
 287.333333333 35 327.333333333 35 368 43 c 24
407 -128 m 24
 397 -125.333333333 385.666666667 -118 373 -106 c 24
 367 -100.666666667 361.666666667 -93.6666666667 357 -85 c 24
 347 -43 l 24
 335.666666667 -17.6666666667 325.666666667 -3.33333333333 317 0 c 24
 239 0 l 24
 205.666666667 10.6666666667 170.666666667 31.6666666667 134 63 c 24
 114 80.3333333333 99 102 89 128 c 24
 67 183.333333333 57 226 59 256 c 24
 62.3333333333 326.666666667 79 397.666666667 109 469 c 24
 120.333333333 498.333333333 149.666666667 541 197 597 c 24
 219 622.333333333 244 644 272 662 c 24
 327.333333333 696 372 717 406 725 c 24
 447.333333333 735.666666667 486.666666667 735.666666667 524 725 c 24
 554 717 589 696 629 662 c 24
 648.333333333 644.666666667 663 623 673 597 c 24
 695 541.666666667 705 499 703 469 c 24
 699.666666667 398.333333333 683.333333333 327.333333333 654 256 c 24
 642 226.666666667 612.333333333 184 565 128 c 24
 543 101.333333333 518.666666667 79.6666666667 492 63 c 24
 357 0 l 24
 354.333333333 -10.6666666667 389.333333333 -31.6666666667 462 -63 c 24
 473.333333333 -67 486.666666667 -67 502 -63 c 24
 591 -22 l 1
 581 -63 l 1
 446 -128 l 24
 435.333333333 -132 422.333333333 -132 407 -128 c 24
EndSplineSet
EndChar

StartChar: R
Encoding: 82 82 49
Width: 623
VWidth: 1024
Flags: HW
LayerCount: 2
Fore
SplineSet
396 341 m 24
 406.666666667 343 423 357.333333333 445 384 c 24
 473.666666667 418 494 446.333333333 506 469 c 24
 518.666666667 497.666666667 525 526.333333333 525 555 c 24
 525 577.666666667 518.333333333 606 505 640 c 24
 495.666666667 666 485.666666667 680.333333333 475 683 c 24
 316 683 l 1
 238 341 l 1
 396 341 l 24
0 0 m 1
 5 22 l 1
 94 63 l 1
 231 662 l 1
 163 705 l 1
 167 725 l 1
 484 725 l 24
 499.333333333 723.666666667 523 709.666666667 555 683 c 24
 567.666666667 671.666666667 577.333333333 657.333333333 584 640 c 24
 596.666666667 606.666666667 603.333333333 578.333333333 604 555 c 24
 604 526.333333333 597.666666667 497.666666667 585 469 c 24
 575 446.333333333 555 418 525 384 c 24
 514.333333333 371.333333333 498 357 476 341 c 24
 439 325 l 1
 503 56 l 1
 560 22 l 1
 555 0 l 1
 436 0 l 1
 367 299 l 1
 228 299 l 1
 174 63 l 1
 243 22 l 1
 238 0 l 1
 0 0 l 1
EndSplineSet
EndChar

StartChar: S
Encoding: 83 83 50
Width: 464
VWidth: 1024
Flags: HW
LayerCount: 2
Fore
SplineSet
0 0 m 1
 30 128 l 1
 70 128 l 1
 98 85 l 24
 125.333333333 61 149 47 169 43 c 24
 198.333333333 37 238 37 288 43 c 24
 297.333333333 44.3333333333 312 51 332 63 c 24
 340.666666667 67.6666666667 348.666666667 75 356 85 c 24
 370.666666667 101.666666667 381 116 387 128 c 24
 394.333333333 145.333333333 397.333333333 159.666666667 396 171 c 24
 390.666666667 225.666666667 382 263.666666667 370 285 c 0
 360 303.666666667 336.666666667 317.666666667 300 327 c 4
 218 341 l 0
 186.666666667 350.333333333 168.333333333 357.333333333 163 362 c 0
 148.333333333 374.666666667 133.666666667 396.333333333 119 427 c 24
 111 443.666666667 107.666666667 457.666666667 109 469 c 24
 114.333333333 521 124 563.666666667 138 597 c 24
 153.333333333 633 173.333333333 661.666666667 198 683 c 24
 222.666666667 704.333333333 252.333333333 718.333333333 287 725 c 24
 328.333333333 733 368 733 406 725 c 24
 475 683 l 1
 505 725 l 1
 524 725 l 1
 495 597 l 1
 455 597 l 1
 426 640 l 24
 398.666666667 663.333333333 375.333333333 677.666666667 356 683 c 24
 335.333333333 688.333333333 308.666666667 688.333333333 276 683 c 24
 267.333333333 681.666666667 252.333333333 674.666666667 231 662 c 24
 221 656 213 648.666666667 207 640 c 24
 193.666666667 624 184 609.666666667 178 597 c 24
 170.666666667 580.333333333 167.333333333 566.333333333 168 555 c 24
 170.666666667 513 177 484.333333333 187 469 c 0
 194.333333333 458.333333333 213.666666667 448.333333333 245 439 c 0
 337 427 l 0
 340.333333333 427 363.333333333 412.666666667 406 384 c 0
 417.333333333 376 427.333333333 361.666666667 436 341 c 24
 450.666666667 304.333333333 457.666666667 276 457 256 c 24
 455.666666667 214 445.666666667 171.333333333 427 128 c 24
 412.333333333 93.3333333333 392.666666667 65 368 43 c 24
 341.333333333 19.6666666667 311.666666667 5.33333333333 279 0 c 24
 223.666666667 -9.33333333333 170.333333333 -9.33333333333 119 0 c 24
 50 43 l 1
 20 0 l 1
 0 0 l 1
EndSplineSet
EndChar

StartChar: T
Encoding: 84 84 51
Width: 623
VWidth: 1024
Flags: HW
LayerCount: 2
Fore
SplineSet
159 0 m 1
 164 22 l 1
 253 63 l 1
 395 683 l 1
 237 683 l 1
 187 640 l 1
 158 597 l 1
 138 597 l 1
 172 746 l 1
 208 725 l 1
 684 725 l 1
 727 746 l 1
 693 597 l 1
 673 597 l 1
 664 640 l 1
 634 683 l 1
 475 683 l 1
 332 63 l 1
 402 22 l 1
 397 0 l 1
 159 0 l 1
EndSplineSet
EndChar

StartChar: U
Encoding: 85 85 52
Width: 702
VWidth: 1024
Flags: HW
LayerCount: 2
Fore
SplineSet
238 0 m 24
 220.666666667 3.33333333333 197.666666667 17.6666666667 169 43 c 24
 155.666666667 53.6666666667 145.333333333 67.6666666667 138 85 c 24
 122 125.666666667 115.666666667 154.333333333 119 171 c 24
 231 662 l 1
 163 705 l 1
 167 725 l 1
 406 725 l 1
 400 705 l 1
 311 662 l 1
 199 171 l 24
 197 160.333333333 200.333333333 146 209 128 c 24
 221 104 235.666666667 82.3333333333 253 63 c 24
 264.333333333 50.3333333333 276 43.6666666667 288 43 c 24
 326.666666667 37.6666666667 366.666666667 37.6666666667 408 43 c 24
 420 44.3333333333 434.333333333 51 451 63 c 24
 477.666666667 82.3333333333 502.333333333 104 525 128 c 24
 541.666666667 145.333333333 552 159.666666667 556 171 c 24
 669 662 l 1
 599 705 l 1
 603 725 l 1
 803 725 l 1
 798 705 l 1
 708 662 l 1
 595 171 l 24
 590.333333333 155 570.666666667 126.333333333 536 85 c 24
 520.666666667 67.6666666667 504 53.6666666667 486 43 c 24
 445.333333333 17.6666666667 415.666666667 3.33333333333 397 0 c 24
 341.666666667 -9.33333333333 288.666666667 -9.33333333333 238 0 c 24
EndSplineSet
EndChar

StartChar: V
Encoding: 86 86 53
Width: 821
VWidth: 1024
Flags: HW
LayerCount: 2
Fore
SplineSet
377 0 m 1
 220 669 l 1
 163 705 l 1
 167 725 l 1
 406 725 l 1
 400 705 l 1
 321 666 l 1
 441 150 l 1
 806 674 l 1
 758 705 l 1
 763 725 l 1
 922 725 l 1
 916 705 l 1
 871 683 l 1
 397 0 l 1
 377 0 l 1
EndSplineSet
EndChar

StartChar: W
Encoding: 87 87 54
Width: 980
VWidth: 1024
Flags: HW
LayerCount: 2
Fore
SplineSet
606 534 m 1
 683 677 l 1
 639 705 l 1
 594 683 l 1
 604 555 l 1
 604 554 l 1
 606 534 l 1
279 0 m 1
 225 666 l 1
 163 705 l 1
 167 725 l 1
 366 725 l 1
 360 705 l 1
 316 683 l 1
 360 128 l 1
 364 85 l 1
 525 384 l 1
 502 666 l 1
 440 705 l 1
 445 725 l 1
 803 725 l 1
 798 705 l 1
 718 666 l 1
 611 469 l 1
 638 128 l 1
 641 85 l 1
 961 677 l 1
 916 705 l 1
 922 725 l 1
 1079 725 l 1
 1075 705 l 1
 994 666 l 1
 635 0 l 1
 555 0 l 1
 531 299 l 1
 530 319 l 1
 357 0 l 1
 279 0 l 1
EndSplineSet
EndChar

StartChar: X
Encoding: 88 88 55
Width: 702
VWidth: 1024
Flags: HW
LayerCount: 2
Fore
SplineSet
29 0 m 5
 34 22 l 5
 76 43 l 1
 330 341 l 1
 348 362 l 1
 340 384 l 1
 231 662 l 1
 163 705 l 1
 167 725 l 1
 406 725 l 1
 400 705 l 1
 334 672 l 1
 429 427 l 1
 437 406 l 1
 674 683 l 1
 639 705 l 1
 643 725 l 1
 771 725 l 1
 766 705 l 1
 726 683 l 1
 472 384 l 1
 454 362 l 1
 463 341 l 1
 570 63 l 1
 640 22 l 1
 635 0 l 1
 397 0 l 1
 402 22 l 1
 468 53 l 1
 373 299 l 1
 365 319 l 1
 129 43 l 1
 164 22 l 1
 159 0 l 1
 29 0 l 5
EndSplineSet
EndChar

StartChar: Y
Encoding: 89 89 56
Width: 662
VWidth: 1024
Flags: HW
LayerCount: 2
Fore
SplineSet
198 0 m 1
 203 22 l 1
 293 63 l 1
 356 341 l 1
 231 662 l 1
 163 705 l 1
 167 725 l 1
 406 725 l 1
 400 705 l 1
 334 672 l 1
 429 427 l 1
 437 406 l 1
 674 683 l 1
 639 705 l 1
 643 725 l 1
 763 725 l 1
 758 705 l 1
 735 693 l 1
 726 683 l 1
 472 384 l 1
 436 341 l 1
 372 63 l 1
 441 22 l 1
 436 0 l 1
 198 0 l 1
EndSplineSet
EndChar

StartChar: Z
Encoding: 90 90 57
Width: 662
VWidth: 1024
Flags: HW
LayerCount: 2
Fore
SplineSet
0 0 m 1
 572 672 l 1
 555 683 l 1
 257 683 l 1
 207 640 l 1
 187 640 l 1
 208 725 l 1
 723 725 l 1
 152 53 l 1
 169 43 l 1
 486 43 l 1
 574 85 l 1
 605 128 l 1
 625 128 l 1
 595 0 l 1
 0 0 l 1
EndSplineSet
EndChar

StartChar: bracketleft
Encoding: 91 91 58
Width: 305
VWidth: 1024
Flags: HW
LayerCount: 2
Fore
SplineSet
-10 -43 m 1
 177 768 l 1
 416 768 l 1
 406 725 l 1
 208 725 l 1
 40 0 l 1
 238 0 l 1
 228 -43 l 1
 -10 -43 l 1
EndSplineSet
EndChar

StartChar: backslash
Encoding: 92 92 59
Width: 463
VWidth: 1024
Flags: HW
LayerCount: 2
Fore
SplineSet
356 0 m 1
 187 725 l 1
 226 725 l 1
 396 0 l 1
 356 0 l 1
EndSplineSet
EndChar

StartChar: bracketright
Encoding: 93 93 60
Width: 305
VWidth: 1024
Flags: HW
LayerCount: 2
Fore
SplineSet
-10 -43 m 1
 0 0 l 1
 198 0 l 5
 366 725 l 1
 167 725 l 1
 177 768 l 1
 416 768 l 1
 228 -43 l 5
 -10 -43 l 1
EndSplineSet
EndChar

StartChar: asciicircum
Encoding: 94 94 61
Width: 464
VWidth: 1024
Flags: HW
LayerCount: 2
Fore
SplineSet
103 449 m 1
 118 512 l 1
 366 725 l 1
 515 512 l 1
 501 449 l 1
 351 662 l 1
 103 449 l 1
EndSplineSet
EndChar

StartChar: underscore
Encoding: 95 95 62
Width: 424
VWidth: 1024
Flags: HW
LayerCount: 2
Fore
SplineSet
-10 -43 m 1
 0 0 l 1
 357 0 l 1
 347 -43 l 1
 -10 -43 l 1
EndSplineSet
EndChar

StartChar: grave
Encoding: 96 96 63
Width: 305
VWidth: 1024
Flags: HW
LayerCount: 2
Fore
SplineSet
306 469 m 1
 133 575 l 1
 142 618 l 1
 187 640 l 1
 220 611 l 1
 353 498 l 1
 346 469 l 1
 306 469 l 1
EndSplineSet
EndChar

StartChar: a
Encoding: 97 97 64
Width: 501
VWidth: 1024
Flags: HW
LayerCount: 2
Fore
SplineSet
185 43 m 24
 310 106 l 1
 359 319 l 1
 264 384 l 24
 249 384 249 384 228 384 c 24
 218 381.333333333 204.333333333 374 187 362 c 24
 178.333333333 356.666666667 170.666666667 349.666666667 164 341 c 24
 147.333333333 321 137.666666667 307 135 299 c 24
 122.333333333 242.333333333 109.333333333 185.333333333 96 128 c 24
 94.6666666667 119.333333333 97.3333333333 105 104 85 c 24
 106.666666667 76.3333333333 111.333333333 69 118 63 c 24
 130 51.6666666667 140.666666667 45 150 43 c 24
 170 43 170 43 185 43 c 24
103 0 m 24
 72.3333333333 9.33333333333 51.6666666667 23.6666666667 41 43 c 24
 26.3333333333 65.6666666667 20.6666666667 94 24 128 c 24
 36.6666666667 184.666666667 49.3333333333 241.666666667 62 299 c 24
 74 333 93 361.333333333 119 384 c 24
 139.666666667 403.333333333 167.333333333 417.666666667 202 427 c 24
 241 427 241 427 274 427 c 24
 369 362 l 1
 379 408 l 0
 461 427 l 0
 377 63 l 1
 439 22 l 1
 434 0 l 1
 286 0 l 1
 300 63 l 1
 176 0 l 24
 142 0 142 0 103 0 c 24
EndSplineSet
EndChar

StartChar: b
Encoding: 98 98 65
Width: 501
VWidth: 1024
Flags: HW
LayerCount: 2
Fore
SplineSet
304 43 m 24
 314 45.6666666667 328 52.3333333333 346 63 c 24
 354.666666667 68.3333333333 362.666666667 75.6666666667 370 85 c 24
 386.666666667 105 395.666666667 119.333333333 397 128 c 24
 409.666666667 184.666666667 423 241.666666667 437 299 c 24
 438.333333333 307 435.333333333 321 428 341 c 24
 425.333333333 349 421 356 415 362 c 24
 403.666666667 373.333333333 393 380.666666667 383 384 c 24
 361 384 361 384 347 384 c 24
 266.333333333 352 225 330.333333333 223 319 c 0
 206.333333333 249 190 178 174 106 c 24
 171.333333333 95.3333333333 202.666666667 74.3333333333 268 43 c 24
 282 43 282 43 304 43 c 24
73 0 m 1
 225 662 l 1
 163 705 l 1
 167 725 l 1
 316 725 l 1
 232 362 l 24
 230 377.333333333 271.666666667 399 357 427 c 24
 390 427 390 427 430 427 c 24
 460.666666667 417.666666667 481.666666667 403.333333333 493 384 c 24
 507.666666667 361.333333333 513.333333333 333 510 299 c 24
 497.333333333 242.333333333 484 185.333333333 470 128 c 24
 458 94 439.333333333 65.6666666667 414 43 c 24
 393.333333333 23.6666666667 366 9.33333333333 332 0 c 24
 292 0 292 0 259 0 c 24
 164 63 l 24
 92 0 l 1
 73 0 l 1
EndSplineSet
EndChar

StartChar: c
Encoding: 99 99 66
Width: 428
VWidth: 1024
Flags: HW
LayerCount: 2
Fore
SplineSet
141 0 m 28
 124.333333333 4 103.333333333 17.3333333333 78 40 c 28
 66 50 56.6666666667 63 50 79 c 28
 38.6666666667 111 33 138 33 160 c 28
 39 186.666666667 45 213 51 239 c 28
 60.3333333333 260.333333333 78.6666666667 287 106 319 c 28
 118.666666667 336.333333333 134 350.666666667 152 362 c 28
 188.666666667 386.666666667 216.666666667 401.333333333 236 406 c 28
 290 406 290 406 345 406 c 28
 373.666666667 398.666666667 394.666666667 384 408 362 c 28
 405.333333333 350.666666667 401.666666667 336.333333333 397 319 c 28
 385.666666667 304.333333333 372 297.333333333 356 298 c 28
 344 298 333.666666667 305 325 319 c 28
 316 362 l 28
 274 362 274 362 225 362 c 28
 214.333333333 358.666666667 199 344.333333333 179 319 c 28
 151.666666667 286.333333333 133 259.666666667 123 239 c 28
 117 212.333333333 111 186 105 160 c 28
 105 138.666666667 111 111.666666667 123 79 c 28
 131.666666667 54.3333333333 141 41.3333333333 151 40 c 28
 205 40 205 40 260 40 c 28
 384 99 l 1
 374 58 l 1
 251 0 l 28
 202 0 202 0 141 0 c 28
EndSplineSet
EndChar

StartChar: d
Encoding: 100 100 67
Width: 501
VWidth: 1024
Flags: HW
LayerCount: 2
Fore
SplineSet
185 43 m 24
 310 106 l 1
 359 319 l 1
 264 384 l 24
 249 384 249 384 228 384 c 24
 218 381.333333333 204.333333333 374 187 362 c 24
 178.333333333 356.666666667 170.666666667 349.666666667 164 341 c 24
 147.333333333 321 137.666666667 307 135 299 c 24
 122.333333333 242.333333333 109.333333333 185.333333333 96 128 c 24
 94.6666666667 119.333333333 97.3333333333 105 104 85 c 24
 106.666666667 76.3333333333 111.333333333 69 118 63 c 24
 130 51.6666666667 140.666666667 45 150 43 c 24
 170 43 170 43 185 43 c 24
103 0 m 24
 72.3333333333 9.33333333333 51.6666666667 23.6666666667 41 43 c 24
 26.3333333333 65.6666666667 20.6666666667 94 24 128 c 24
 36.6666666667 184.666666667 49.3333333333 241.666666667 62 299 c 24
 74 333 93 361.333333333 119 384 c 24
 139.666666667 403.333333333 167.333333333 417.666666667 202 427 c 24
 241 427 241 427 274 427 c 24
 369 362 l 1
 438 662 l 1
 376 705 l 1
 380 725 l 1
 529 725 l 1
 377 63 l 1
 439 22 l 1
 434 0 l 1
 286 0 l 1
 300 63 l 1
 176 0 l 24
 142 0 142 0 103 0 c 24
EndSplineSet
EndChar

StartChar: e
Encoding: 101 101 68
Width: 428
VWidth: 1024
Flags: HW
LayerCount: 2
Fore
SplineSet
346 256 m 5
 340 326 l 28
 329.333333333 358 317 377.333333333 303 384 c 4
 267 384 267 384 230 384 c 4
 214 378 193.333333333 359.333333333 168 328 c 28
 127 256 l 5
 346 256 l 5
141 0 m 28
 124.333333333 4 103.333333333 18.3333333333 78 43 c 28
 66 53.6666666667 57.3333333333 67.6666666667 52 85 c 28
 40.6666666667 119 35 147.666666667 35 171 c 28
 41.6666666667 199.666666667 48 228 54 256 c 28
 63.3333333333 278.666666667 82.3333333333 307 111 341 c 28
 123.666666667 358.333333333 139 372.666666667 157 384 c 28
 191 406.666666667 219 421 241 427 c 28
 278 427 278 427 313 427 c 28
 331 421.666666667 352 407.333333333 376 384 c 28
 388 373.333333333 396.666666667 359 402 341 c 28
 411.333333333 312.333333333 417.333333333 284 420 256 c 28
 410 213 l 5
 118 213 l 5
 108 171 l 28
 110 143 115.666666667 114.333333333 125 85 c 28
 133.666666667 59 142.666666667 45 152 43 c 28
 206 43 206 43 261 43 c 28
 385 106 l 5
 376 63 l 5
 251 0 l 28
 202 0 202 0 141 0 c 28
EndSplineSet
EndChar

StartChar: f
Encoding: 102 102 69
Width: 365
VWidth: 1024
Flags: HW
LayerCount: 2
Fore
SplineSet
119 -131 m 1
 111 -149 82.3333333333 -190.333333333 33 -255 c 24
 27 -263.666666667 19 -270.666666667 9 -276 c 1
 157 362 l 1
 84 362 l 1
 93 406 l 1
 166 406 l 1
 198 543 l 24
 206.666666667 563 236.333333333 608.666666667 287 680 c 24
 293 689.333333333 301 696.666666667 311 702 c 24
 328.333333333 713.333333333 342 721 352 725 c 24
 371 725 371 725 391 725 c 24
 411.666666667 719.666666667 422.666666667 713 424 705 c 24
 419.333333333 683.666666667 414.666666667 662 410 640 c 24
 400.666666667 625.333333333 386.333333333 618 367 618 c 24
 354.333333333 618 343 625.333333333 333 640 c 24
 338 662 l 24
 334.666666667 662 326.666666667 654 314 638 c 24
 296.666666667 615.333333333 287.333333333 599.666666667 286 591 c 24
 243 406 l 1
 391 406 l 1
 381 362 l 1
 232 362 l 1
 119 -131 l 1
EndSplineSet
EndChar

StartChar: g
Encoding: 103 103 70
Width: 466
VWidth: 1024
Flags: HW
LayerCount: 2
Fore
SplineSet
245 115 m 24
 253 116.333333333 266.666666667 123 286 135 c 24
 294 140.333333333 301.333333333 147.666666667 308 157 c 24
 323.333333333 175.666666667 332.666666667 189 336 197 c 24
 342 225 348.333333333 253 355 281 c 24
 355.666666667 290.333333333 352.666666667 303.666666667 346 321 c 24
 343.333333333 329 339.333333333 336 334 342 c 24
 320.666666667 354 310 360.666666667 302 362 c 24
 265 362 265 362 229 362 c 24
 221 360.666666667 207 354 187 342 c 24
 178.333333333 336.666666667 170.666666667 329.666666667 164 321 c 24
 148.666666667 302.333333333 139.333333333 289 136 281 c 24
 130 253 123.666666667 225 117 197 c 24
 116.333333333 187.666666667 119.333333333 174.333333333 126 157 c 24
 128.666666667 149 133 141.666666667 139 135 c 24
 152.333333333 123.666666667 163.333333333 117 172 115 c 24
 208 115 208 115 245 115 c 24
2 -299 m 24
 -4.66666666667 -298.333333333 -15.3333333333 -291.666666667 -30 -279 c 24
 -36.6666666667 -273.666666667 -41.3333333333 -266.333333333 -44 -257 c 24
 -50.6666666667 -239 -54 -225.333333333 -54 -216 c 24
 -47.3333333333 -186 -42.6666666667 -165.666666667 -40 -155 c 24
 -36.6666666667 -149.666666667 -22.3333333333 -142.333333333 3 -133 c 24
 14 -133 14 -133 22 -133 c 24
 31.3333333333 -139 36 -146.333333333 36 -155 c 24
 22 -216 l 24
 20.6666666667 -241.333333333 23.6666666667 -255 31 -257 c 24
 70 -257 70 -257 159 -257 c 24
 165.666666667 -256.333333333 179.333333333 -249.666666667 200 -237 c 24
 208 -231.666666667 215.333333333 -224.666666667 222 -216 c 24
 237.333333333 -197.333333333 246.666666667 -183.666666667 250 -175 c 24
 256 -147 262.333333333 -119.333333333 269 -92 c 24
 269.666666667 -82.6666666667 266.666666667 -69 260 -51 c 24
 255.333333333 -38.3333333333 251.333333333 -31.6666666667 248 -31 c 24
 178 -31 178 -31 138 -31 c 24
 13 -92 l 24
 -26 -92 l 24
 100 90 l 24
 93 94 l 24
 69 126 55 147 51 157 c 24
 44.3333333333 171.666666667 41.3333333333 185 42 197 c 24
 51 239 51 239 60 281 c 24
 64.6666666667 293.666666667 74.3333333333 307 89 321 c 24
 111.666666667 344.333333333 135.333333333 365.333333333 160 384 c 24
 177.333333333 396.666666667 191.333333333 404 202 406 c 24
 275 406 275 406 348 406 c 24
 379 384 l 24
 426 427 l 24
 441 427 441 427 463 427 c 24
 469.666666667 424.333333333 474 417.333333333 476 406 c 24
 474 398.666666667 472.333333333 391.333333333 471 384 c 24
 463.666666667 372.666666667 455.666666667 365.333333333 447 362 c 24
 411 362 l 24
 402.333333333 360 398.666666667 356.666666667 400 352 c 24
 420 321 l 24
 426.666666667 304.333333333 429.666666667 291 429 281 c 24
 423 253 416.666666667 225 410 197 c 24
 405.333333333 184.333333333 396 171 382 157 c 24
 360 133.666666667 336.666666667 112.666666667 312 94 c 24
 294.666666667 82 281 75 271 73 c 24
 125 73 l 0
 102.333333333 39.6666666667 77.3333333333 3 50 -37 c 24
 147 11 l 24
 199 11 199 11 257 11 c 24
 268.333333333 8.33333333333 289.666666667 -5.66666666667 321 -31 c 24
 327 -35.6666666667 331.333333333 -42.3333333333 334 -51 c 24
 340 -69.6666666667 343 -83.3333333333 343 -92 c 24
 337 -120 330.666666667 -147.666666667 324 -175 c 24
 319.333333333 -187.666666667 310 -201.333333333 296 -216 c 24
 274 -239.333333333 250.666666667 -260.333333333 226 -279 c 24
 208.666666667 -291 195 -297.666666667 185 -299 c 24
 93 -299 93 -299 2 -299 c 24
EndSplineSet
EndChar

StartChar: h
Encoding: 104 104 71
Width: 583
VWidth: 1024
Flags: HW
LayerCount: 2
Fore
SplineSet
150 0 m 1x7c
 73 0 l 1x7c
 224 657 l 1
 163 703 l 1
 167 725 l 1
 316 725 l 1
 228 342 l 1
 352 406 l 1
 425 406 l 1
 489 362 l 1
 509 283 l 1
 468 104 l 1
 462 77.3333333333 458.333333333 58.3333333333 457 47 c 0
 457.666666667 43.6666666667 459.333333333 40.6666666667 462 38 c 128
 464.666666667 35.3333333333 468 34 472 34 c 0
 476.666666667 34 482.666666667 36.1666666667 490 40.5 c 128
 497.333333333 44.8333333333 503.666666667 50.3333333333 509 57 c 2
 545 103 l 1
 556 93 l 1
 531.333333333 55 509.666666667 28.3333333333 491 13 c 128
 472.333333333 -2.33333333333 452.333333333 -10 431 -10 c 0xbc
 387.666666667 -10 375.333333333 30.6666666667 394 112 c 1
 433 283 l 1
 424 323 l 1
 411 342 l 1
 378 362 l 1
 342 362 l 1
 219 302 l 1
 150 0 l 1x7c
EndSplineSet
EndChar

StartChar: i
Encoding: 105 105 72
Width: 286
VWidth: 1024
Flags: HW
LayerCount: 2
Fore
SplineSet
172 105 m 5
 166 77.6666666667 162.333333333 58.3333333333 161 47 c 0
 161.666666667 43.6666666667 163.5 40.6666666667 166.5 38 c 128
 169.5 35.3333333333 172.666666667 34 176 34 c 0
 187.333333333 34 200 42 214 58 c 2
 250 104 l 1
 262 93 l 1
 237.333333333 55 215.666666667 28.3333333333 197 13 c 128
 178.333333333 -2.33333333333 158 -10 136 -10 c 0
 112 -10 97.6666666667 0.5 93 21.5 c 128
 88.3333333333 42.5 90.3333333333 72 99 110 c 5
 143 300 l 5
 149 327.333333333 153 346.666666667 155 358 c 0
 154.333333333 361.333333333 152.333333333 364.5 149 367.5 c 128
 145.666666667 370.5 142.333333333 372 139 372 c 0
 127.666666667 372 115 364 101 348 c 2
 66 301 l 1
 52 312 l 1
 76.6666666667 350 98.5 376.833333333 117.5 392.5 c 128
 136.5 408.166666667 157 416 179 416 c 0
 203 416 217.333333333 405.5 222 384.5 c 128
 226.666666667 363.5 224.666666667 334 216 296 c 0
 172 105 l 5
238.5 555 m 152
 228.166666667 555 220 559 214 567 c 256
 208.666666667 575 207.333333333 585 210 597 c 256
 212.666666667 608.333333333 218.666666667 618.666666667 228 628 c 0
 236.666666667 636 246.666666667 640 258 640 c 0
 268.666666667 640 276.666666667 635.833333333 282 627.5 c 128
 287.333333333 619.166666667 289 609 287 597 c 0
 284.333333333 585.666666667 278 575.666666667 268 567 c 256
 258.666666667 559 248.833333333 555 238.5 555 c 152
EndSplineSet
EndChar

StartChar: j
Encoding: 106 106 73
Width: 247
VWidth: 1024
Flags: HW
LayerCount: 2
Fore
SplineSet
-8 -171 m 24
 -28.6666666667 -165 -40 -158 -42 -150 c 24
 -37.3333333333 -128.666666667 -32.3333333333 -107 -27 -85 c 24
 -17.6666666667 -70.3333333333 -3.33333333333 -63 16 -63 c 24
 28.6666666667 -63 39.3333333333 -70.3333333333 48 -85 c 24
 44 -106 l 24
 48 -106 56 -99.3333333333 68 -86 c 24
 85.3333333333 -65.3333333333 94.3333333333 -52 95 -46 c 24
 174 299 l 1
 180 326.333333333 184 346 186 358 c 0
 185.333333333 361.333333333 183.5 364.5 180.5 367.5 c 128
 177.5 370.5 174.333333333 372 171 372 c 0
 166.333333333 372 160.166666667 369.666666667 152.5 365 c 128
 144.833333333 360.333333333 138.333333333 354.666666667 133 348 c 2
 96 301 l 1
 84 311 l 1
 109.333333333 349 131.333333333 376 150 392 c 128
 168.666666667 408 189 416 211 416 c 0
 255 416 267.333333333 375 248 293 c 1
 179 -6 l 24
 175 -18 146.666666667 -59.3333333333 94 -130 c 24
 88.6666666667 -137.333333333 81 -144.333333333 71 -151 c 24
 53.6666666667 -161.666666667 39.6666666667 -168.333333333 29 -171 c 24
 11 -171 11 -171 -8 -171 c 24
271.5 555 m 156
 261.166666667 555 253 559 247 567 c 4
 241.666666667 575 240.333333333 585 243 597 c 260
 245.666666667 608.333333333 251.666666667 618.666666667 261 628 c 4
 269.666666667 636 279.666666667 640 291 640 c 4
 301 640 308.833333333 635.833333333 314.5 627.5 c 132
 320.166666667 619.166666667 321.333333333 609 318 597 c 4
 315.333333333 585.666666667 309.666666667 575.666666667 301 567 c 260
 291.666666667 559 281.833333333 555 271.5 555 c 156
EndSplineSet
EndChar

StartChar: k
Encoding: 107 107 74
Width: 505
VWidth: 1024
Flags: HW
LayerCount: 2
Fore
SplineSet
150 0 m 1x78
 73 0 l 1x78
 224 656 l 1
 162 703 l 1
 167 725 l 1
 316 725 l 1
 201 221 l 1
 369 372 l 1
 402 402 l 0
 413.333333333 411.333333333 427.666666667 416.333333333 445 417 c 0
 459.666666667 417 471.666666667 412.666666667 481 404 c 128
 490.333333333 395.333333333 495 384.666666667 495 372 c 0
 495 360.666666667 491.666666667 351 485 343 c 128
 478.333333333 335 470 331 460 331 c 0
 453.333333333 331 442.666666667 334.666666667 428 342 c 0
 420 346.666666667 413 349 407 349 c 0
 403 349 397.666666667 346.333333333 391 341 c 0
 415 362 l 1
 266 232 l 1
 397 41 l 1
 397.666666667 40.3333333333 398.333333333 39.3333333333 399 38 c 128
 399.666666667 36.6666666667 400.166666667 35.5 400.5 34.5 c 128
 400.833333333 33.5 401.5 32.5 402.5 31.5 c 128
 403.5 30.5 405 30 407 30 c 0
 417.666666667 30 428.333333333 36.3333333333 439 49 c 2
 478 98 l 1
 488 90 l 1
 464 53.3333333333 443.166666667 27.3333333333 425.5 12 c 128
 407.833333333 -3.33333333333 389 -11 369 -11 c 0xb8
 348.333333333 -11 336.333333333 -8 333 -2 c 1
 196 202 l 1
 150 0 l 1x78
EndSplineSet
EndChar

StartChar: l
Encoding: 108 108 75
Width: 287
VWidth: 1024
Flags: HW
LayerCount: 2
Fore
SplineSet
174 110 m 1
 167.333333333 81.3333333333 163.333333333 60.6666666667 162 48 c 0
 162.666666667 44.6666666667 164.5 41.5 167.5 38.5 c 128
 170.5 35.5 173.666666667 34 177 34 c 0
 188.333333333 34 201 42.3333333333 215 59 c 2
 251 109 l 1
 263 97 l 1
 237.666666667 57.6666666667 215.5 30 196.5 14 c 128
 177.5 -2 157 -10 135 -10 c 0
 110.333333333 -10 96 1 92 23 c 128
 88 45 90.3333333333 76.3333333333 99 117 c 1
 225 662 l 1
 163 705 l 1
 167 725 l 1
 316 725 l 1
 174 110 l 1
EndSplineSet
EndChar

StartChar: m
Encoding: 109 109 76
Width: 803
VWidth: 1024
Flags: HW
LayerCount: 2
Fore
SplineSet
150 0 m 1x7c
 73 0 l 1x7c
 141 300 l 1
 147 327.333333333 151.333333333 346.666666667 154 358 c 0
 153.333333333 361.333333333 151.333333333 364.5 148 367.5 c 128
 144.666666667 370.5 141.333333333 372 138 372 c 0
 126.666666667 372 114.333333333 364 101 348 c 2
 66 301 l 1
 52 312 l 1
 76.6666666667 350 98.5 376.833333333 117.5 392.5 c 128
 136.5 408.166666667 157 416 179 416 c 0
 203 416 217.333333333 405 222 383 c 0
 228 377 231 370.666666667 231 364 c 24
 314 406 l 24
 351 406 351 406 388 406 c 24
 388.666666667 406 410.333333333 392 453 364 c 24
 467 343 l 24
 489 364 l 24
 529 388.666666667 557 402.666666667 573 406 c 24
 610 406 610 406 647 406 c 24
 677.666666667 396.666666667 699 382.666666667 711 364 c 24
 727 341.333333333 733.333333333 314.666666667 730 284 c 24
 688 105 l 1
 682 77.6666666667 678.333333333 58.3333333333 677 47 c 0
 677.666666667 43.6666666667 679.5 40.6666666667 682.5 38 c 128
 685.5 35.3333333333 688.666666667 34 692 34 c 0
 696.666666667 34 702.833333333 36.1666666667 710.5 40.5 c 128
 718.166666667 44.8333333333 724.666666667 50.3333333333 730 57 c 2
 766 103 l 1
 778 93 l 1
 753.333333333 55 731.666666667 28.3333333333 713 13 c 128
 694.333333333 -2.33333333333 674 -10 652 -10 c 0xbc
 608.666666667 -10 596.333333333 30.6666666667 615 112 c 1
 655 284 l 24
 656.333333333 291.333333333 653.333333333 304.333333333 646 323 c 24
 643.333333333 330.333333333 639 337 633 343 c 24
 621 353.666666667 610 360.666666667 600 364 c 24
 582 364 582 364 564 364 c 24
 554 361.333333333 540.333333333 354.333333333 523 343 c 24
 514.333333333 337.666666667 506.666666667 331 500 323 c 24
 483.333333333 303.666666667 474 290.666666667 472 284 c 24
 407 0 l 1
 331 0 l 1
 396 284 l 24
 397.333333333 291.333333333 394.333333333 304.333333333 387 323 c 24
 384.333333333 330.333333333 380 337 374 343 c 24
 362 353.666666667 351.333333333 360.666666667 342 364 c 24
 320 364 320 364 305 364 c 24
 255 346.666666667 227.666666667 333 223 323 c 24
 150 0 l 1x7c
EndSplineSet
EndChar

StartChar: n
Encoding: 110 110 77
Width: 545
VWidth: 1024
Flags: HW
LayerCount: 2
Fore
SplineSet
150 0 m 1x78
 73 0 l 1x78
 141 300 l 1
 147 327.333333333 151.333333333 346.666666667 154 358 c 0
 153.333333333 361.333333333 151.333333333 364.5 148 367.5 c 128
 144.666666667 370.5 141.333333333 372 138 372 c 0
 126.666666667 372 114.333333333 364 101 348 c 2
 66 301 l 1
 52 312 l 1
 76.6666666667 350 98.5 376.833333333 117.5 392.5 c 128
 136.5 408.166666667 157 416 179 416 c 0
 203 416 217.333333333 405 222 383 c 0
 228 377 231 370.666666667 231 364 c 28
 315 406 l 28
 352 406 352 406 388 406 c 28
 418.666666667 396.666666667 440.333333333 382.666666667 453 364 c 28
 469 341.333333333 475 314.666666667 471 284 c 28
 430 105 l 1
 424 77.6666666667 420 58.3333333333 418 47 c 0
 418.666666667 43.6666666667 420.5 40.6666666667 423.5 38 c 128
 426.5 35.3333333333 430 34 434 34 c 0
 438.666666667 34 444.833333333 36.1666666667 452.5 40.5 c 128
 460.166666667 44.8333333333 466.333333333 50.3333333333 471 57 c 2
 508 103 l 1
 519 93 l 1
 494.333333333 55 472.666666667 28.3333333333 454 13 c 128
 435.333333333 -2.33333333333 415.333333333 -10 394 -10 c 0xb8
 350.666666667 -10 338.333333333 30.6666666667 357 112 c 1
 396 284 l 28
 397.333333333 291.333333333 394.333333333 304.333333333 387 323 c 28
 384.333333333 330.333333333 380 337 374 343 c 28
 362 353.666666667 351.333333333 360.666666667 342 364 c 28
 320 364 320 364 305 364 c 28
 255 346.666666667 227.666666667 333 223 323 c 28
 150 0 l 1x78
EndSplineSet
EndChar

StartChar: o
Encoding: 111 111 78
Width: 459
VWidth: 1024
Flags: HW
LayerCount: 2
Fore
SplineSet
261 43 m 28
 271 45.6666666667 286.333333333 59.6666666667 307 85 c 28
 334.333333333 119 353.333333333 147.666666667 364 171 c 28
 370.666666667 199.666666667 377 228 383 256 c 28
 383.666666667 278.666666667 378 307 366 341 c 28
 357.333333333 367 348.666666667 381.333333333 340 384 c 28
 285 384 285 384 230 384 c 28
 220 381.333333333 204.333333333 367 183 341 c 28
 155 307 136.333333333 278.666666667 127 256 c 28
 120.333333333 227.333333333 114 199 108 171 c 28
 107.333333333 148.333333333 113 119.666666667 125 85 c 28
 133.666666667 59 142.666666667 45 152 43 c 28
 207 43 207 43 261 43 c 28
141 0 m 28
 124.333333333 4 103.333333333 18.3333333333 78 43 c 28
 66 53.6666666667 57.3333333333 67.6666666667 52 85 c 28
 40.6666666667 119 35 147.666666667 35 171 c 28
 41.6666666667 199.666666667 48 228 54 256 c 28
 63.3333333333 278.666666667 82.3333333333 307 111 341 c 28
 123.666666667 358.333333333 139 372.666666667 157 384 c 28
 193.666666667 408.666666667 221.666666667 423 241 427 c 28
 295 427 295 427 350 427 c 28
 366.666666667 423 387.666666667 408.666666667 413 384 c 28
 425 373.333333333 433.666666667 359 439 341 c 28
 451 307 456.666666667 278.666666667 456 256 c 28
 449.333333333 227.333333333 442.666666667 199 436 171 c 28
 426.666666667 148.333333333 408 119.666666667 380 85 c 28
 366.666666667 67.6666666667 351.333333333 53.6666666667 334 43 c 28
 297.333333333 18.3333333333 269.666666667 4 251 0 c 28
 195 0 195 0 141 0 c 28
EndSplineSet
EndChar

StartChar: p
Encoding: 112 112 79
Width: 500
VWidth: 1024
Flags: HW
LayerCount: 2
Fore
SplineSet
302 33 m 24
 312 35.6666666667 325.666666667 42 343 52 c 24
 351.666666667 57.3333333333 359.666666667 64.3333333333 367 73 c 24
 383.666666667 92.3333333333 392.666666667 106.333333333 394 115 c 24
 406.666666667 169.666666667 419.666666667 225 433 281 c 24
 434.333333333 289 431.333333333 302.666666667 424 322 c 24
 421.333333333 330 416.666666667 336.666666667 410 342 c 24
 398 352.666666667 387.333333333 359.333333333 378 362 c 24
 356 362 356 362 342 362 c 24
 262 330.666666667 220.666666667 310 218 300 c 4
 201.333333333 227.333333333 185.666666667 158.666666667 171 94 c 28
 168.333333333 83.3333333333 200 63 266 33 c 24
 280 33 280 33 302 33 c 24
3 -299 m 1
 141 298 l 1
 147 326 151.333333333 346 154 358 c 0
 153.333333333 361.333333333 151.333333333 364.5 148 367.5 c 128
 144.666666667 370.5 141.333333333 372 138 372 c 0
 126.666666667 372 114.333333333 363.666666667 101 347 c 2
 65 299 l 1
 52 310 l 1
 76.6666666667 348.666666667 98.3333333333 376 117 392 c 128
 135.666666667 408 156 416 178 416 c 0
 203.333333333 416 218.333333333 405 223 383 c 0
 227.666666667 371.666666667 229.333333333 358 228 342 c 24
 352 406 l 24
 385 406 385 406 425 406 c 24
 455.666666667 396.666666667 476.333333333 382 487 362 c 24
 501.666666667 340 507.666666667 313 505 281 c 24
 492.333333333 226.333333333 479.666666667 171 467 115 c 24
 455 82.3333333333 436.666666667 55 412 33 c 24
 391.333333333 14.3333333333 363.666666667 0.333333333333 329 -9 c 24
 289 -9 289 -9 256 -9 c 24
 161 52 l 24
 80 -299 l 1
 3 -299 l 1
EndSplineSet
EndChar

StartChar: q
Encoding: 113 113 80
Width: 428
VWidth: 1024
Flags: HW
LayerCount: 2
Fore
SplineSet
185 43 m 24
 265 74.3333333333 306.666666667 95.3333333333 310 106 c 0
 325.333333333 170 341.666666667 241 359 319 c 0
 361 329.666666667 329.333333333 351.333333333 264 384 c 24
 249 384 249 384 228 384 c 24
 218 381.333333333 204.333333333 374 187 362 c 24
 178.333333333 356.666666667 170.666666667 349.666666667 164 341 c 24
 147.333333333 321 137.666666667 307 135 299 c 24
 122.333333333 242.333333333 109.333333333 185.333333333 96 128 c 24
 94.6666666667 119.333333333 97.3333333333 105 104 85 c 24
 106.666666667 76.3333333333 111.333333333 69 118 63 c 24
 130 51.6666666667 140.666666667 45 150 43 c 24
 170 43 170 43 185 43 c 24
293 -299 m 1
 216 -299 l 1
 300 63 l 24
 176 0 l 24
 143 0 143 0 103 0 c 24
 72.3333333333 9.33333333333 51.6666666667 23.6666666667 41 43 c 24
 26.3333333333 65.6666666667 20.6666666667 94 24 128 c 24
 36.6666666667 184.666666667 49.3333333333 241.666666667 62 299 c 24
 74 333 93 361.333333333 119 384 c 24
 139.666666667 403.333333333 167.333333333 417.666666667 202 427 c 24
 241 427 241 427 274 427 c 24
 369 362 l 24
 441 427 l 1
 461 427 l 1
 293 -299 l 1
EndSplineSet
EndChar

StartChar: r
Encoding: 114 114 81
Width: 394
VWidth: 1024
Flags: HW
LayerCount: 2
Fore
SplineSet
150 0 m 1
 73 0 l 1
 141 300 l 1
 147 327.333333333 151.333333333 346.666666667 154 358 c 0
 153.333333333 361.333333333 151.333333333 364.5 148 367.5 c 128
 144.666666667 370.5 141.333333333 372 138 372 c 0
 126.666666667 372 114.333333333 364 101 348 c 2
 65 301 l 1
 52 312 l 1
 76.6666666667 350 98.3333333333 376.833333333 117 392.5 c 128
 135.666666667 408.166666667 156 416 178 416 c 0
 203.333333333 416 218.333333333 405.333333333 223 384 c 128
 227.666666667 362.666666667 225.666666667 332.666666667 217 294 c 1
 214 283 l 0
 224.666666667 313.666666667 242.666666667 340.666666667 268 364 c 24
 284 378.666666667 312 392.666666667 352 406 c 24
 377 406 377 406 388 406 c 24
 393.333333333 400.666666667 396 386.666666667 396 364 c 24
 391.333333333 344.666666667 388.333333333 331 387 323 c 28
 371 303 358.333333333 296 349 302 c 4
 340.333333333 308 332 313.666666667 324 319 c 0
 313 347 l 0
 301 346.333333333 289.333333333 338.333333333 278 323 c 0
 232.666666667 265 205.333333333 224.666666667 196 202 c 24
 150 0 l 1
EndSplineSet
EndChar

StartChar: s
Encoding: 115 115 82
Width: 307
VWidth: 1024
Flags: HW
LayerCount: 2
Fore
SplineSet
66 0 m 28
 37.3333333333 6.66666666667 16.3333333333 21 3 43 c 28
 5.66666666667 54.3333333333 8.66666666667 68.3333333333 12 85 c 28
 23.3333333333 99.6666666667 37.3333333333 106.666666667 54 106 c 28
 65.3333333333 106 75.6666666667 99 85 85 c 28
 93 43 l 28
 113 43 113 43 184 43 c 28
 194 44.3333333333 203.333333333 48.6666666667 212 56 c 28
 219.333333333 62.6666666667 225.666666667 72.3333333333 231 85 c 28
 236.333333333 108.333333333 239.666666667 122.666666667 241 128 c 4
 231.666666667 147.333333333 213 162.333333333 185 173 c 4
 125 186 l 4
 103 194.666666667 87.6666666667 203.666666667 79 213 c 4
 61.6666666667 229.666666667 52.6666666667 244 52 256 c 28
 56.6666666667 275.333333333 63.3333333333 303.666666667 72 341 c 28
 75.3333333333 349.666666667 84.3333333333 364 99 384 c 28
 105.666666667 392 113.666666667 399.333333333 123 406 c 28
 143.666666667 419.333333333 157.333333333 426.333333333 164 427 c 28
 231 427 231 427 273 427 c 28
 302.333333333 419.666666667 323.666666667 405.333333333 337 384 c 28
 334.333333333 372.666666667 331 358.333333333 327 341 c 28
 315.666666667 326.333333333 302 319 286 319 c 28
 274 319 263.333333333 326.333333333 254 341 c 28
 246 384 l 28
 223 384 223 384 154 384 c 28
 144.666666667 382.666666667 135.333333333 378 126 370 c 28
 118.666666667 363.333333333 113 353.666666667 109 341 c 28
 103.666666667 317.666666667 100 303.666666667 98 299 c 4
 104.666666667 287 122.666666667 275 152 263 c 4
 211 250 l 4
 226.333333333 243.333333333 242.833333333 231 260.5 213 c 132
 278.166666667 195 287.333333333 181 288 171 c 28
 283.333333333 151 276.666666667 122.333333333 268 85 c 28
 264.666666667 76.3333333333 255.333333333 62.3333333333 240 43 c 28
 232.666666667 34.3333333333 224.666666667 27.3333333333 216 22 c 28
 195.333333333 9.33333333333 181.666666667 2 175 0 c 28
 108 0 108 0 66 0 c 28
EndSplineSet
EndChar

StartChar: t
Encoding: 116 116 83
Width: 288
VWidth: 1024
Flags: HW
LayerCount: 2
Fore
SplineSet
111 0 m 25
 37 0 l 1
 121 362 l 1
 84 362 l 1
 93 406 l 1
 130 406 l 1
 154 505 l 1
 241 555 l 1
 206 406 l 1
 315 406 l 1
 305 362 l 1
 197 362 l 1
 131 82 l 1
 137 55 l 24
 143 46.3333333333 150 42.1666666667 158 42.5 c 152
 166 42.8333333333 175 47 185 55 c 24
 204 82 l 1
 241 82 l 1
 213 42 l 24
 206.333333333 33.3333333333 198.333333333 26 189 20 c 24
 171 9.33333333333 157 2.66666666667 147 0 c 24
 129 0 129 0 111 0 c 25
EndSplineSet
EndChar

StartChar: u
Encoding: 117 117 84
Width: 546
VWidth: 1024
Flags: HW
LayerCount: 2
Fore
SplineSet
183 0 m 28xb8
 152.333333333 8.66666666667 131.333333333 22 120 40 c 28
 104 62.6666666667 97.6666666667 89.6666666667 101 121 c 28
 142 300 l 1
 148 327.333333333 152.333333333 346.666666667 155 358 c 0
 154.333333333 361.333333333 152.333333333 364.5 149 367.5 c 128
 145.666666667 370.5 142.333333333 372 139 372 c 0
 127.666666667 372 115 363.666666667 101 347 c 2
 65 301 l 1
 52 311 l 1
 76.6666666667 349 98.5 376 117.5 392 c 128
 136.5 408 157 416 179 416 c 0xd8
 203 416 217.166666667 405.166666667 221.5 383.5 c 128
 225.833333333 361.833333333 223.666666667 331.666666667 215 293 c 1
 175 121 l 28
 173.666666667 114.333333333 176.666666667 100.666666667 184 80 c 28
 186.666666667 72 191.333333333 65 198 59 c 28
 210 48.3333333333 220.666666667 42 230 40 c 28
 252 40 252 40 267 40 c 28
 317.666666667 58 345.333333333 71.3333333333 350 80 c 28
 425 406 l 1
 501 406 l 1
 421 59 l 1
 485 20 l 1
 480 0 l 1
 331 0 l 1
 341 40 l 28
 258 0 l 28
 220 0 220 0 183 0 c 28xb8
EndSplineSet
EndChar

StartChar: v
Encoding: 118 118 85
Width: 536
VWidth: 1024
Flags: HW
LayerCount: 2
Fore
SplineSet
200 0 m 1xc0
 120 362 l 1
 122 353 l 0
 120 362.333333333 115.666666667 367.333333333 109 368 c 0
 96.3333333333 368 82.6666666667 358 68 338 c 2
 36 295 l 1
 22 306 l 1
 48 346.666666667 70.6666666667 375.166666667 90 391.5 c 128
 109.333333333 407.833333333 130.666666667 416 154 416 c 0
 185.333333333 416 203.333333333 404.666666667 208 382 c 0
 213 356 l 1
 268 100 l 1
 436 346 l 1
 452 368 l 0xa0
 464.666666667 388 476.833333333 401.333333333 488.5 408 c 128
 500.166666667 414.666666667 514.333333333 418 531 418 c 0
 547.666666667 418 561 412.833333333 571 402.5 c 128
 581 392.166666667 586.666666667 379.666666667 588 365 c 0
 588.666666667 351.666666667 584.5 339.833333333 575.5 329.5 c 128
 566.5 319.166666667 555.666666667 314 543 314 c 0
 533.666666667 314 522 318.333333333 508 327 c 0
 501.333333333 331.666666667 494.666666667 333.666666667 488 333 c 0
 484.666666667 333 482.166666667 332.166666667 480.5 330.5 c 128
 478.833333333 328.833333333 476.5 325.166666667 473.5 319.5 c 128
 470.5 313.833333333 467.666666667 309.666666667 465 307 c 0
 494 348 l 1
 255 0 l 1
 200 0 l 1xc0
EndSplineSet
EndChar

StartChar: w
Encoding: 119 119 86
Width: 684
VWidth: 1024
Flags: HW
LayerCount: 2
Fore
SplineSet
170 0 m 1xc0
 145 347 l 1
 144 359 l 0
 144 362.333333333 142.833333333 365.666666667 140.5 369 c 128
 138.166666667 372.333333333 135.333333333 374 132 374 c 0
 122 374 110.333333333 366.333333333 97 351 c 2
 59 302 l 1
 48 312 l 1
 72 350 93.1666666667 376.833333333 111.5 392.5 c 128
 129.833333333 408.166666667 149.333333333 416 170 416 c 0xa0
 199.333333333 416 215 401.333333333 217 372 c 0
 218 359 l 1
 238 80 l 1
 410 406 l 1
 434 406 l 1x90
 456 80 l 1
 603 356 l 1
 584 321 l 0
 586 323.666666667 589 327.333333333 593 332 c 128
 597 336.666666667 599.666666667 340.333333333 601 343 c 0
 623.666666667 375 640.166666667 395.333333333 650.5 404 c 128
 660.833333333 412.666666667 673.333333333 417 688 417 c 0
 702.666666667 417 714 413 722 405 c 128
 730 397 734 386.666666667 734 374 c 0
 734.666666667 363.333333333 732 354.5 726 347.5 c 128
 720 340.5 712 337 702 337 c 0
 694 337 684.333333333 340.333333333 673 347 c 0
 665 352.333333333 657.333333333 354.666666667 650 354 c 0
 640 354 628.666666667 345 616 327 c 0
 615.333333333 325.666666667 615.166666667 323.166666667 615.5 319.5 c 128
 615.833333333 315.833333333 615.666666667 313.333333333 615 312 c 0
 634 346 l 1
 450 0 l 1
 388 0 l 1
 372 242 l 1
 370 262 l 1
 230 0 l 1
 170 0 l 1xc0
EndSplineSet
EndChar

StartChar: x
Encoding: 120 120 87
Width: 466
VWidth: 1024
Flags: HW
LayerCount: 2
Fore
SplineSet
109 15 m 1x60
 93 -3.66666666667 72 -12.6666666667 46 -12 c 0
 29.3333333333 -12 15.8333333333 -7.16666666667 5.5 2.5 c 128
 -4.83333333333 12.1666666667 -10.3333333333 25 -11 41 c 0
 -11 55.6666666667 -6.66666666667 67.8333333333 2 77.5 c 128
 10.6666666667 87.1666666667 21.6666666667 92 35 92 c 0
 45 92 56.6666666667 88.3333333333 70 81 c 0
 77.3333333333 76.3333333333 83.3333333333 74 88 74 c 128
 92.6666666667 74 100 79.3333333333 110 90 c 1
 197 193 l 1
 131 362 l 1
 132 359 l 0
 128.666666667 367.666666667 125.333333333 372.333333333 122 373 c 0
 110.666666667 373 99 365.666666667 87 351 c 2
 48 302 l 1
 37 311 l 1
 61 349 82.3333333333 376 101 392 c 128
 119.666666667 408 139.333333333 416 160 416 c 0x90
 185.333333333 416 200.333333333 409 205 395 c 0
 216 365 l 5
 246 283 l 5
 256 252 l 5
 353 370 l 5
 373 391 l 0
 388.333333333 409 409 418 435 418 c 0
 451.666666667 418 465.333333333 413.166666667 476 403.5 c 128
 486.666666667 393.833333333 492 381 492 365 c 0
 492 350.333333333 487.5 338.166666667 478.5 328.5 c 128
 469.5 318.833333333 458.333333333 314 445 314 c 0
 435 314 423.666666667 317.666666667 411 325 c 0
 403.666666667 329.666666667 397 332 391 332 c 0
 389 332 387.166666667 331.5 385.5 330.5 c 128
 383.833333333 329.5 382.5 328.666666667 381.5 328 c 128
 380.5 327.333333333 378.833333333 325.333333333 376.5 322 c 128
 374.166666667 318.666666667 372.333333333 316.333333333 371 315 c 0
 392 341 l 5
 275 203 l 5
 335 46 l 5
 338.333333333 37.3333333333 342.333333333 33 347 33 c 0
 358.333333333 33 370 40 382 54 c 2
 420 104 l 1
 431 94 l 1
 407 56 385.833333333 29.1666666667 367.5 13.5 c 128
 349.166666667 -2.16666666667 329.666666667 -10 309 -10 c 0
 283.666666667 -10 268.666666667 -3 264 11 c 1
 215 143 l 1
 109 15 l 1x60
EndSplineSet
EndChar

StartChar: y
Encoding: 121 121 88
Width: 536
VWidth: 1024
Flags: HW
LayerCount: 2
Fore
SplineSet
-33 -299 m 24x80
 -47.6666666667 -289.666666667 -56.6666666667 -275.666666667 -60 -257 c 24
 -56.6666666667 -241 -53.3333333333 -227.333333333 -50 -216 c 24
 -39.3333333333 -203.333333333 -25.6666666667 -196.666666667 -9 -196 c 24
 23 -216 l 24
 55 -216 55 -216 59 -216 c 24
 198 -10 l 1
 121 353 l 5
 119 362.333333333 114.666666667 367.333333333 108 368 c 0
 96 368 82.3333333333 357.666666667 67 337 c 2
 34 294 l 1
 20 305 l 1
 46.6666666667 345.666666667 69.6666666667 374.333333333 89 391 c 128
 108.333333333 407.666666667 130 416 154 416 c 0
 185.333333333 416 203 404.333333333 207 381 c 0
 213 355 l 1
 267 93 l 1
 436 346 l 1
 452 368 l 0x40
 464.666666667 388 476.833333333 401.333333333 488.5 408 c 128
 500.166666667 414.666666667 514.333333333 418 531 418 c 0
 547.666666667 418 561 412.833333333 571 402.5 c 128
 581 392.166666667 586.666666667 379.333333333 588 364 c 0
 588.666666667 350.666666667 584.5 339 575.5 329 c 128
 566.5 319 555.666666667 314 543 314 c 0
 533.666666667 314 522 318 508 326 c 0
 501.333333333 330.666666667 494.666666667 333 488 333 c 0
 484.666666667 333 482.166666667 332.166666667 480.5 330.5 c 128
 478.833333333 328.833333333 476.5 325.166666667 473.5 319.5 c 128
 470.5 313.833333333 467.666666667 309.333333333 465 306 c 0
 494 348 l 1
 115 -216 l 24
 105 -230.666666667 81.6666666667 -251.666666667 45 -279 c 24
 31.6666666667 -289 17.6666666667 -295.666666667 3 -299 c 24
 -21 -299 -21 -299 -33 -299 c 24x80
EndSplineSet
EndChar

StartChar: z
Encoding: 122 122 89
Width: 371
VWidth: 1024
Flags: HW
LayerCount: 2
Fore
SplineSet
0 0 m 1
 264 362 l 1
 140 362 l 1
 84 283 l 1
 66 283 l 1
 93 406 l 1
 378 406 l 1
 115 43 l 5
 257 43 l 1
 312 123 l 1
 332 123 l 1
 303 0 l 1
 0 0 l 1
EndSplineSet
EndChar

StartChar: braceleft
Encoding: 123 123 90
Width: 386
VWidth: 1024
Flags: HW
LayerCount: 2
Fore
SplineSet
228 -43 m 24
 208 -37.6666666667 185 -23.3333333333 159 0 c 24
 146.333333333 11.3333333333 136.333333333 25.6666666667 129 43 c 24
 118.333333333 71.6666666667 111.666666667 100 109 128 c 24
 107.666666667 142.666666667 111 157 119 171 c 24
 178 256 l 24
 180 261.333333333 176.666666667 275.666666667 168 299 c 24
 164.666666667 307 159.666666667 313.666666667 153 319 c 24
 140.333333333 330.333333333 129 337.666666667 119 341 c 24
 79 341 l 1
 89 384 l 1
 129 384 l 24
 140.333333333 386.666666667 155 394 173 406 c 24
 181.666666667 411.333333333 190 418.333333333 198 427 c 24
 217.333333333 449.666666667 227 463.666666667 227 469 c 24
 207 555 l 24
 205.666666667 569.666666667 209 583.666666667 217 597 c 24
 232.333333333 625 252 653.666666667 276 683 c 24
 291.333333333 700.333333333 308.333333333 714.333333333 327 725 c 24
 363.666666667 747.666666667 393.333333333 762 416 768 c 24
 495 768 l 1
 484 725 l 1
 406 725 l 24
 397.333333333 723.666666667 382 717 360 705 c 24
 351.333333333 699.666666667 343.666666667 692.333333333 337 683 c 24
 321.666666667 665 311.666666667 650.666666667 307 640 c 24
 299.666666667 623.333333333 296.333333333 609 297 597 c 24
 316 512 l 24
 316.666666667 500 313.333333333 485.666666667 306 469 c 24
 300.666666667 457.666666667 291.333333333 443.666666667 278 427 c 24
 270 417.666666667 261.666666667 410.666666667 253 406 c 24
 163 362 l 24
 232 319 l 24
 238.666666667 314.333333333 244 307.666666667 248 299 c 24
 254.666666667 281.666666667 257.666666667 267.333333333 257 256 c 24
 257 239.333333333 253.666666667 225 247 213 c 24
 188 128 l 24
 181.333333333 116 178 101.666666667 178 85 c 24
 178.666666667 74.3333333333 182.333333333 60.3333333333 189 43 c 24
 191.666666667 34.3333333333 196.333333333 27.3333333333 203 22 c 24
 218.333333333 10 230 2.66666666667 238 0 c 24
 317 0 l 1
 307 -43 l 1
 228 -43 l 24
EndSplineSet
EndChar

StartChar: bar
Encoding: 124 124 91
Width: 107
VWidth: 1024
Flags: HW
LayerCount: 2
Fore
SplineSet
-10 -43 m 1
 177 768 l 1
 217 768 l 1
 30 -43 l 1
 -10 -43 l 1
EndSplineSet
EndChar

StartChar: braceright
Encoding: 125 125 92
Width: 386
VWidth: 1024
Flags: HW
LayerCount: 2
Fore
SplineSet
-10 -43 m 1
 0 0 l 1
 79 0 l 28
 88.3333333333 2 103.333333333 9.33333333333 124 22 c 28
 133.333333333 27.3333333333 141.333333333 34.3333333333 148 43 c 28
 163.333333333 60.3333333333 173.333333333 74.3333333333 178 85 c 28
 185.333333333 101.666666667 188.666666667 116 188 128 c 28
 168 213 l 28
 167.333333333 225 170.666666667 239.333333333 178 256 c 28
 183.333333333 267.333333333 193.333333333 281.666666667 208 299 c 28
 216.666666667 308.333333333 224.666666667 315 232 319 c 28
 322 362 l 28
 253 406 l 28
 246.333333333 410.666666667 241.333333333 417.666666667 238 427 c 28
 231.333333333 444.333333333 227.666666667 458.333333333 227 469 c 28
 227 485.666666667 230.666666667 500 238 512 c 28
 297 597 l 28
 303.666666667 609 307 623.333333333 307 640 c 28
 307 651.333333333 303.666666667 665.666666667 297 683 c 28
 294.333333333 691.666666667 289.333333333 699 282 705 c 28
 266.666666667 717 255 723.666666667 247 725 c 28
 167 725 l 1
 177 768 l 1
 256 768 l 28
 276 762.666666667 299.666666667 748.333333333 327 725 c 28
 340.333333333 714.333333333 349.666666667 700.333333333 355 683 c 28
 365.666666667 654.333333333 372.666666667 625.666666667 376 597 c 28
 377.333333333 582.333333333 374.333333333 568.333333333 367 555 c 28
 306 469 l 28
 304 463.666666667 307.333333333 449.666666667 316 427 c 28
 319.333333333 419 324.666666667 412 332 406 c 28
 367 384 l 1
 406 384 l 1
 396 341 l 1
 356 341 l 1
 312 319 l 28
 303.333333333 313.666666667 295 307 287 299 c 28
 267.666666667 276.333333333 257.666666667 262 257 256 c 28
 278 171 l 28
 279.333333333 156.333333333 275.666666667 142 267 128 c 28
 251 99.3333333333 231.333333333 71 208 43 c 28
 192.666666667 25.6666666667 176.333333333 11.3333333333 159 0 c 28
 122.333333333 -22.6666666667 92.3333333333 -37 69 -43 c 28
 -10 -43 l 1
EndSplineSet
EndChar

StartChar: asciitilde
Encoding: 126 126 93
Width: 424
VWidth: 1024
Flags: HW
LayerCount: 2
Fore
SplineSet
118 512 m 1
 128 555 l 24
 133.333333333 566.333333333 143.333333333 580.333333333 158 597 c 24
 164.666666667 605 173 612 183 618 c 24
 201.666666667 629.333333333 216 636.666666667 226 640 c 24
 242.666666667 644 256.333333333 644 267 640 c 24
 281.666666667 634.666666667 304.666666667 620.333333333 336 597 c 24
 386 555 l 24
 392.666666667 551 399.666666667 551 407 555 c 24
 423 564.333333333 439 578.333333333 455 597 c 24
 485 640 l 1
 505 640 l 1
 495 597 l 24
 490.333333333 586.333333333 480.333333333 572.333333333 465 555 c 24
 458.333333333 546.333333333 450 539.333333333 440 534 c 24
 421.333333333 522.666666667 406.666666667 515.333333333 396 512 c 24
 379.333333333 508 366 508 356 512 c 24
 340.666666667 518 317.666666667 532.333333333 287 555 c 24
 237 597 l 24
 230.333333333 601 223.666666667 601 217 597 c 24
 201 587.666666667 184.666666667 573.666666667 168 555 c 24
 138 512 l 1
 118 512 l 1
EndSplineSet
EndChar

StartChar: exclamdown
Encoding: 161 161 94
Width: 186
VWidth: 1024
Flags: HW
LayerCount: 2
Fore
SplineSet
208 725 m 5
 158 683 l 5
 147 640 l 5
 178 597 l 5
 217 597 l 5
 267 640 l 5
 276 683 l 5
 247 725 l 5
 208 725 l 5
158 512 m 5
 79 341 l 5
 19 85 l 5
 40 0 l 5
 79 0 l 5
 138 85 l 5
 198 341 l 5
 198 512 l 5
 158 512 l 5
EndSplineSet
EndChar

StartChar: cent
Encoding: 162 162 95
Width: 464
VWidth: 1024
Flags: HW
LayerCount: 2
Fore
SplineSet
377 580 m 5
 427 580 l 5
 117 -123 l 5
 66 -123 l 5
 377 580 l 5
159 0 m 28
 140.333333333 4 117 18.3333333333 89 43 c 4
 75.6666666667 53.6666666667 65.6666666667 67.6666666667 59 85 c 4
 46.3333333333 119 40 147.666666667 40 171 c 4
 40 199.666666667 46.3333333333 228 59 256 c 4
 69 278.666666667 89 307 119 341 c 4
 133.666666667 358.333333333 150 372.666666667 168 384 c 4
 207.333333333 408.666666667 237.333333333 423 258 427 c 4
 298.666666667 435 338.333333333 435 377 427 c 4
 408.333333333 419.666666667 431 405.333333333 445 384 c 4
 453 372.666666667 450 358.333333333 436 341 c 4
 424 326.333333333 409 319 391 319 c 4
 377.666666667 319 366.333333333 326.333333333 357 341 c 5
 347 384 l 5
 319 394.666666667 286 394.666666667 248 384 c 4
 236.666666667 380.666666667 220 366.333333333 198 341 c 4
 168.666666667 307 148.666666667 278.666666667 138 256 c 4
 125.333333333 227.333333333 119 199 119 171 c 4
 119 148.333333333 125.666666667 119.666666667 139 85 c 4
 148.333333333 59 158.333333333 45 169 43 c 4
 205.666666667 32.3333333333 245.333333333 32.3333333333 288 43 c 5
 422 106 l 5
 412 63 l 5
 279 0 l 5
 241 -9.33333333333 201 -9.33333333333 159 0 c 28
EndSplineSet
EndChar

StartChar: sterling
Encoding: 163 163 96
Width: 424
VWidth: 1024
Flags: HW
LayerCount: 2
Fore
SplineSet
286 351 m 1025,0,-1
97 12 m 1,1,-1
 18 0 l 1,2,-1
 -32 23 l 1,3,4
 -50 49 -53.3333333333 69.3333333333 -42 84 c 1,5,-1
 -42 84 l 1,6,-1
 -22 125 l 2,7,8
 -14 135 -1.33333333333 146.333333333 16 159 c 0,9,10
 24 165 33.6666666667 169.666666667 45 173 c 0,11,12
 65 179 80 182 90 182 c 0,13,14
 94.6666666667 182 99 181.333333333 103 180 c 1,15,-1
 106 351 l 1,16,-1
 27 351 l 1,17,-1
 33 378 l 1,18,-1
 102 378 l 1,19,-1
 91 452 l 1,20,21
 90.3333333333 478.666666667 96 507.333333333 108 538 c 0,22,23
 112.666666667 549.333333333 130.333333333 571.333333333 161 604 c 0,24,25
 171 614 179 621.333333333 185 626 c 0,26,27
 207.666666667 639.333333333 222.333333333 646.333333333 229 647 c 0,28,29
 285 652.333333333 325 652.333333333 349 647 c 0,30,31
 381 639.666666667 404.333333333 625.333333333 419 604 c 0,32,33
 427 592.666666667 423.666666667 578.333333333 409 561 c 0,34,35
 397 546.333333333 382.333333333 539.333333333 365 540 c 0,36,37
 351.666666667 540 339.666666667 547 329 561 c 1,38,-1
 319 604 l 1,39,40
 301 610 268 610 220 604 c 0,41,42
 210 602.666666667 200 598 190 590 c 0,43,44
 182 583.333333333 175.666666667 573.666666667 171 561 c 0,45,46
 163.666666667 543 160.333333333 529 161 519 c 0,47,48
 163.666666667 488.333333333 166.666666667 460 170 434 c 2,49,-1
 178 378 l 1,50,-1
 292 378 l 1,51,-1
 286 351 l 1,52,-1
 182 351 l 1,53,-1
 174 106 l 2,54,55
 174.666666667 105.333333333 175 104.666666667 175 104 c 2,56,-1
 208 46 l 2,57,58
 212.666666667 40 218.333333333 38 225 40 c 0,59,60
 241.666666667 44.6666666667 260.333333333 54.3333333333 281 69 c 1,61,-1
 319 103 l 1,62,-1
 337 97 l 1,63,-1
 316 56 l 2,64,65
 308.666666667 46.6666666667 296.333333333 35.6666666667 279 23 c 0,66,67
 270.333333333 16.3333333333 260.666666667 11 250 7 c 0,68,69
 230 1 215 -1.66666666667 205 -1 c 0,70,71
 189 -0.333333333333 177 3.66666666667 169 11 c 0,72,73
 160.333333333 19 149 33 135 53 c 1,74,-1
 97 12 l 1,1,-1
18 74 m 5,75,-1
 48 46 l 1,76,77
 57.3333333333 48 65.6666666667 52 73 58 c 0,78,79
 79 63.3333333333 85.6666666667 73 93 87 c 0,80,81
 96.3333333333 93.6666666667 99 101.666666667 101 111 c 1,82,-1
 87 135 l 2,83,84
 83 141 77.3333333333 143 70 141 c 0,85,86
 53.3333333333 135.666666667 34.6666666667 126.333333333 14 113 c 1,87,-1
 18 74 l 5,75,-1
EndSplineSet
EndChar

StartChar: currency
Encoding: 164 164 97
Width: 461
VWidth: 1024
Flags: HW
LayerCount: 2
Fore
SplineSet
124 547 m 1
 162 580 l 1
 190 538 l 1
 205.333333333 546.666666667 218.333333333 552.333333333 229 555 c 0
 243.666666667 558.333333333 257 558.333333333 269 555 c 0
 278.333333333 552.333333333 289 546.333333333 301 537 c 1
 350 580 l 1
 373 547 l 1
 323 504 l 1
 327.666666667 491.333333333 329.666666667 480 329 470 c 0
 329 455.333333333 325.333333333 441 318 427 c 0
 313.333333333 417 305.666666667 404.666666667 295 390 c 1
 327 345 l 1
 289 312 l 1
 256 358 l 1
 241.333333333 349.333333333 229.333333333 344 220 342 c 0
 205.333333333 338.666666667 192 338.666666667 180 342 c 0
 172 344 163 349 153 357 c 1
 100 312 l 1
 77 345 l 1
 129 389 l 1
 123.666666667 404.333333333 121 417 121 427 c 0
 121 441.666666667 124 456 130 470 c 0
 134 479.333333333 142 491 154 505 c 1
 124 547 l 1
230 385 m 128
 244 387.666666667 254 391.666666667 260 397 c 0
 266.666666667 403 273.333333333 413 280 427 c 0
 286 441.666666667 289.333333333 456 290 470 c 0
 290.666666667 476.666666667 290.333333333 482.333333333 289 487 c 2
 275 507 l 2
 271 509.666666667 265.666666667 511.666666667 259 513 c 0
 246.333333333 515.666666667 233 515.666666667 219 513 c 0
 213.666666667 511.666666667 209 510.333333333 205 509 c 2
 177 485 l 2
 174.333333333 481 172 476 170 470 c 0
 164 455.333333333 160.666666667 441 160 427 c 0
 159.333333333 417 160 409 162 403 c 2
 169 393 l 2
 173.666666667 389 180.333333333 386.333333333 189 385 c 0
 202.333333333 382.333333333 216 382.333333333 230 385 c 128
EndSplineSet
EndChar

StartChar: yen
Encoding: 165 165 98
Width: 714
VWidth: 1024
Flags: HW
LayerCount: 2
Fore
SplineSet
196 218 m 5
 551 218 l 5
 540 169 l 5
 183 169 l 5
 196 218 l 5
218 318 m 1
 574 318 l 1
 563 269 l 1
 207 269 l 1
 218 318 l 1
EndSplineSet
Refer: 56 89 N 1 0 0 1 0 0 2
EndChar

StartChar: brokenbar
Encoding: 166 166 99
Width: 179
VWidth: 1048
Flags: HW
LayerCount: 2
Fore
SplineSet
-15 -66 m 1
 70 302 l 5
 112 302 l 1
 28 -66 l 1
 -15 -66 l 1
98 425 m 1
 176 762 l 1
 219 762 l 1
 140 425 l 1
 98 425 l 1
EndSplineSet
EndChar

StartChar: section
Encoding: 167 167 100
Width: 345
VWidth: 1024
Flags: HW
LayerCount: 2
Fore
SplineSet
76 9 m 4
 53.3333333333 16.3333333333 37.3333333333 32.3333333333 28 57 c 4
 23.3333333333 69 26.6666666667 84.3333333333 38 103 c 4
 48 119 60 127 74 127 c 4
 83.3333333333 127 91 119 97 103 c 5
 101 57 l 5
 111 51 136 51 176 57 c 4
 184 58.3333333333 192 63.3333333333 200 72 c 4
 206.666666667 79.3333333333 212 89.6666666667 216 103 c 4
 225.333333333 128.333333333 229 144.333333333 227 151 c 4
 220.333333333 172.333333333 206 188.666666667 184 200 c 5
 167 206 l 6
 159 206.666666667 151.333333333 208 144 210 c 4
 128.666666667 215.333333333 116.666666667 224 108 236 c 4
 104 240 104 240 100 244 c 4
 87.3333333333 262 81 277.666666667 81 291 c 4
 81.6666666667 312.333333333 89 343.666666667 103 385 c 4
 106.333333333 395 115 410.666666667 129 432 c 4
 135 441.333333333 142 449.333333333 150 456 c 4
 153.333333333 458.666666667 156 461 158 463 c 5
 152 474.333333333 149.333333333 484 150 492 c 4
 150.666666667 514 157.666666667 545.666666667 171 587 c 4
 174.333333333 596.333333333 183 611.666666667 197 633 c 4
 203.666666667 642.333333333 210.333333333 650 217 656 c 4
 235 670.666666667 247 678.666666667 253 680 c 4
 291 687.333333333 320.666666667 687.333333333 342 680 c 4
 364.666666667 672.666666667 380.666666667 657 390 633 c 4
 394.666666667 621 391.333333333 605.666666667 380 587 c 4
 370 571 358 563 344 563 c 4
 334.666666667 563 327 571 321 587 c 5
 315 633 l 5
 305 639 280.666666667 639 242 633 c 4
 234 631.666666667 226 626.333333333 218 617 c 4
 211.333333333 609.666666667 205.666666667 599.666666667 201 587 c 4
 191.666666667 561.666666667 188 545.666666667 190 539 c 4
 196.666666667 517.666666667 210.666666667 501 232 489 c 5
 250 484 l 6
 258 483.333333333 265.666666667 481.666666667 273 479 c 4
 288.333333333 473.666666667 300.333333333 465.333333333 309 454 c 4
 311.666666667 451.333333333 314.333333333 448.333333333 317 445 c 4
 329.666666667 427 336 411.333333333 336 398 c 4
 335.333333333 376.666666667 328 345.666666667 314 305 c 4
 310.666666667 295 302.333333333 279 289 257 c 4
 283 247.666666667 276 239.666666667 268 233 c 4
 264.666666667 230.333333333 261.666666667 228 259 226 c 5
 265 214.666666667 268 205.333333333 268 198 c 4
 267.333333333 176 260.333333333 144.333333333 247 103 c 4
 243.666666667 93.6666666667 235 78.3333333333 221 57 c 4
 214.333333333 47.6666666667 207.666666667 39.6666666667 201 33 c 4
 183 18.3333333333 171 10.3333333333 165 9 c 4
 127 1.66666666667 97.3333333333 1.66666666667 76 9 c 4
177 433 m 4
 175.666666667 433 174.333333333 432.666666667 173 432 c 4
 165 430.666666667 157.333333333 425.333333333 150 416 c 4
 143.333333333 408.666666667 137.666666667 398.333333333 133 385 c 4
 124.333333333 359.666666667 120.666666667 344.333333333 122 339 c 4
 126.666666667 325.666666667 140.333333333 312.333333333 163 299 c 5
 211 285 l 6
 220.333333333 279.666666667 230 270.333333333 240 257 c 4
 242 257 242 257 245 257 c 4
 253 258.333333333 260.666666667 263.666666667 268 273 c 4
 274.666666667 280.333333333 280.333333333 291 285 305 c 4
 293.666666667 330.333333333 297 345.666666667 295 351 c 4
 290.333333333 364.333333333 276.666666667 377.333333333 254 390 c 5
 206 406 l 6
 196 411.333333333 186.333333333 420.333333333 177 433 c 4
EndSplineSet
EndChar

StartChar: dieresis
Encoding: 168 168 101
Width: 190
VWidth: 1024
Flags: HW
LayerCount: 2
Fore
SplineSet
430 516 m 1
 381 474 l 1
 341 474 l 1
 311 516 l 1
 322 559 l 1
 371 602 l 1
 411 602 l 1
 440 559 l 1
 430 516 l 1
238 514 m 1
 187 471 l 1
 147 471 l 1
 119 514 l 1
 129 557 l 1
 177 599 l 1
 217 599 l 1
 248 557 l 1
 238 514 l 1
EndSplineSet
EndChar

StartChar: copyright
Encoding: 169 169 102
Width: 1513
VWidth: 2097
Flags: HW
LayerCount: 2
Fore
SplineSet
586 318 m 5
 580 290.666666667 571 267 559 247 c 132
 547 227 532.5 210.5 515.5 197.5 c 132
 498.5 184.5 479.5 174.666666667 458.5 168 c 132
 437.5 161.333333333 415 158 391 158 c 4
 365.666666667 158 344 162.666666667 326 172 c 132
 308 181.333333333 293.833333333 194.833333333 283.5 212.5 c 132
 273.166666667 230.166666667 267 251 265 275 c 132
 263 299 265.333333333 326 272 356 c 6
 286 416 l 6
 292.666666667 445.333333333 302.666666667 472 316 496 c 132
 329.333333333 520 345 540.666666667 363 558 c 132
 381 575.333333333 401.333333333 588.833333333 424 598.5 c 132
 446.666666667 608.166666667 471 613 497 613 c 4
 521 613 542 609.833333333 560 603.5 c 132
 578 597.166666667 592.166666667 587.166666667 602.5 573.5 c 132
 612.833333333 559.833333333 619.5 543.166666667 622.5 523.5 c 132
 625.5 503.833333333 623.666666667 480.333333333 617 453 c 5
 548 453 l 5
 555.333333333 487 553.166666667 511.166666667 541.5 525.5 c 132
 529.833333333 539.833333333 509.666666667 547 481 547 c 4
 465 547 450.333333333 543.833333333 437 537.5 c 132
 423.666666667 531.166666667 411.666666667 522.333333333 401 511 c 132
 390.333333333 499.666666667 381 485.666666667 373 469 c 132
 365 452.333333333 358.666666667 434.666666667 354 416 c 6
 341 356 l 6
 336.333333333 336.666666667 334.166666667 319 334.5 303 c 132
 334.833333333 287 337.666666667 273.166666667 343 261.5 c 132
 348.333333333 249.833333333 356.333333333 240.5 367 233.5 c 132
 377.666666667 226.5 391 223 407 223 c 4
 436.333333333 223 460 230.166666667 478 244.5 c 132
 496 258.833333333 508.666666667 283.333333333 516 318 c 5
 586 318 l 5
167 386 m 4
 157 340 154.666666667 297.5 160 258.5 c 132
 165.333333333 219.5 177.5 185.5 196.5 156.5 c 132
 215.5 127.5 240.166666667 104.666666667 270.5 88 c 132
 300.833333333 71.3333333333 336 63 376 63 c 260
 414.666666667 63 453 71.3333333333 491 88 c 132
 529 104.666666667 564.166666667 127.5 596.5 156.5 c 132
 628.833333333 185.5 657 219.5 681 258.5 c 132
 705 297.5 722.333333333 340 733 386 c 4
 743 431.333333333 745.166666667 473.5 739.5 512.5 c 132
 733.833333333 551.5 721.5 585.333333333 702.5 614 c 132
 683.5 642.666666667 658.833333333 665.333333333 628.5 682 c 132
 598.166666667 698.666666667 563.333333333 707 524 707 c 260
 485.333333333 707 446.833333333 698.666666667 408.5 682 c 132
 370.166666667 665.333333333 334.833333333 642.666666667 302.5 614 c 132
 270.166666667 585.333333333 242 551.5 218 512.5 c 132
 194 473.5 177 431.333333333 167 386 c 4
112 386 m 260
 120 422 132 456.5 148 489.5 c 132
 164 522.5 182.666666667 553.333333333 204 582 c 132
 225.333333333 610.666666667 248.833333333 636.333333333 274.5 659 c 132
 300.166666667 681.666666667 327.333333333 701 356 717 c 132
 384.666666667 733 414.5 745.5 445.5 754.5 c 132
 476.5 763.5 507.666666667 768 539 768 c 260
 570.333333333 768 599.166666667 763.5 625.5 754.5 c 132
 651.833333333 745.5 675.5 733 696.5 717 c 132
 717.5 701 735.666666667 681.666666667 751 659 c 132
 766.333333333 636.333333333 778.166666667 610.666666667 786.5 582 c 132
 794.833333333 553.333333333 799.166666667 522.5 799.5 489.5 c 132
 799.833333333 456.5 795.666666667 422 787 386 c 260
 779 350 767.166666667 315.5 751.5 282.5 c 132
 735.833333333 249.5 717.5 218.666666667 696.5 190 c 132
 675.5 161.333333333 652 135.5 626 112.5 c 132
 600 89.5 572.666666667 69.8333333333 544 53.5 c 132
 515.333333333 37.1666666667 485.5 24.5 454.5 15.5 c 132
 423.5 6.5 392.333333333 2 361 2 c 260
 329.666666667 2 300.666666667 6.5 274 15.5 c 132
 247.333333333 24.5 223.5 37.1666666667 202.5 53.5 c 132
 181.5 69.8333333333 163.333333333 89.5 148 112.5 c 132
 132.666666667 135.5 121 161.333333333 113 190 c 132
 105 218.666666667 100.833333333 249.5 100.5 282.5 c 132
 100.166666667 315.5 104 350 112 386 c 260
EndSplineSet
EndChar

StartChar: ordfeminine
Encoding: 170 170 103
Width: 420
VWidth: 1024
Flags: HW
LayerCount: 2
Fore
SplineSet
218 531 m 28
 223.333333333 531.666666667 228.5 534.166666667 233.5 538.5 c 156
 238.5 542.833333333 241.666666667 547.666666667 243 553 c 28
 258 616 l 5
 198 616 l 28
 192.666666667 615.333333333 187.5 613 182.5 609 c 156
 177.5 605 174.333333333 600.666666667 173 596 c 28
 167.666666667 581.333333333 164.333333333 567 163 553 c 28
 162.333333333 547.666666667 163.5 542.833333333 166.5 538.5 c 156
 169.5 534.166666667 173.333333333 531.666666667 178 531 c 28
 191.333333333 529 204.666666667 529 218 531 c 28
173 510 m 4
 165 511.333333333 153.333333333 518.333333333 138 531 c 28
 128.666666667 539 124 546.333333333 124 553 c 28
 122.666666667 567.666666667 126 582 134 596 c 28
 137.333333333 602 145.333333333 608.666666667 158 616 c 28
 178 628 193 635.333333333 203 638 c 28
 263 638 l 5
 272 681 l 28
 272.666666667 686.333333333 271.666666667 691 269 695 c 156
 266.333333333 699 262.666666667 701.333333333 258 702 c 28
 243.333333333 704.666666667 233.333333333 704.666666667 228 702 c 28
 213 681 l 28
 205 674.333333333 197.333333333 671 190 671 c 28
 181.333333333 671 175.666666667 674.333333333 173 681 c 28
 170.333333333 689.666666667 171.666666667 696.666666667 177 702 c 28
 187.666666667 711.333333333 202.666666667 718.666666667 222 724 c 28
 236.666666667 727.333333333 250 727.333333333 262 724 c 28
 272 721.333333333 283.666666667 714 297 702 c 28
 307.666666667 693.333333333 312.333333333 686.333333333 311 681 c 28
 282 553 l 5
 286 539 l 5
 297 531 l 5
 319 543 l 5
 314 521 l 5
 292 510 l 5
 272 510 l 5
 255 521 l 5
 248 531 l 5
 247 539 l 5
 213 510 l 28
 201.666666667 508 188.333333333 508 173 510 c 4
EndSplineSet
EndChar

StartChar: guillemotleft
Encoding: 171 171 104
Width: 386
VWidth: 1024
Flags: HW
LayerCount: 2
Fore
SplineSet
401 194 m 5
 229 364 l 5
 240 407 l 5
 490 578 l 5
 480 535 l 5
 273 385 l 5
 412 236 l 5
 401 194 l 5
256 193 m 5
 84 362 l 5
 93 406 l 5
 344 575 l 5
 335 534 l 5
 129 384 l 5
 265 234 l 5
 256 193 l 5
EndSplineSet
EndChar

StartChar: logicalnot
Encoding: 172 172 105
Width: 424
VWidth: 1024
Flags: HW
LayerCount: 2
Fore
SplineSet
89 384 m 1
 98 427 l 1
 456 427 l 1
 422 279 l 5
 380 279 l 0
 403 384 l 0
 89 384 l 1
EndSplineSet
EndChar

StartChar: uni00AD
Encoding: 173 173 106
Width: 424
VWidth: 1024
Flags: HW
LayerCount: 2
Fore
SplineSet
89 384 m 1
 98 427 l 1
 456 427 l 1
 445 384 l 1
 89 384 l 1
EndSplineSet
EndChar

StartChar: registered
Encoding: 174 174 107
Width: 1514
VWidth: 2097
Flags: HW
LayerCount: 2
Fore
SplineSet
89 386 m 260xfc80
 97 422 109.166666667 456.5 125.5 489.5 c 132
 141.833333333 522.5 160.5 553.333333333 181.5 582 c 132
 202.5 610.666666667 226 636.333333333 252 659 c 132
 278 681.666666667 305.333333333 701 334 717 c 132
 362.666666667 733 392.333333333 745.5 423 754.5 c 132
 453.666666667 763.5 484.666666667 768 516 768 c 260
 547.333333333 768 576.333333333 763.5 603 754.5 c 132
 629.666666667 745.5 653.666666667 733 675 717 c 132
 696.333333333 701 714.666666667 681.666666667 730 659 c 132
 745.333333333 636.333333333 756.833333333 610.666666667 764.5 582 c 132
 772.166666667 553.333333333 776.333333333 522.5 777 489.5 c 132
 777.666666667 456.5 773.666666667 422 765 386 c 260
 757 350 745.166666667 315.5 729.5 282.5 c 132
 713.833333333 249.5 695.333333333 218.666666667 674 190 c 132
 652.666666667 161.333333333 629 135.5 603 112.5 c 132
 577 89.5 549.666666667 69.8333333333 521 53.5 c 132
 492.333333333 37.1666666667 462.666666667 24.5 432 15.5 c 132
 401.333333333 6.5 370.333333333 2 339 2 c 260
 307.666666667 2 278.666666667 6.5 252 15.5 c 132
 225.333333333 24.5 201.333333333 37.1666666667 180 53.5 c 132
 158.666666667 69.8333333333 140.333333333 89.5 125 112.5 c 132
 109.666666667 135.5 98.1666666667 161.333333333 90.5 190 c 132
 82.8333333333 218.666666667 78.6666666667 249.5 78 282.5 c 132
 77.3333333333 315.5 81 350 89 386 c 260xfc80
144 386 m 4
 134 340 131.833333333 297.5 137.5 258.5 c 132
 143.166666667 219.5 155.5 185.5 174.5 156.5 c 132
 193.5 127.5 218.333333333 104.666666667 249 88 c 132
 279.666666667 71.3333333333 314.333333333 63 353 63 c 260
 391.666666667 63 430.166666667 71.3333333333 468.5 88 c 132
 506.833333333 104.666666667 542.333333333 127.5 575 156.5 c 132
 607.666666667 185.5 635.666666667 219.5 659 258.5 c 132
 682.333333333 297.5 699.666666667 340 711 386 c 4
 721 431.333333333 723.166666667 473.5 717.5 512.5 c 132
 711.833333333 551.5 699.5 585.333333333 680.5 614 c 132
 661.5 642.666666667 636.666666667 665.333333333 606 682 c 132
 575.333333333 698.666666667 540.666666667 707 502 707 c 260
 463.333333333 707 424.833333333 698.666666667 386.5 682 c 132
 348.166666667 665.333333333 312.666666667 642.666666667 280 614 c 132
 247.333333333 585.333333333 219 551.5 195 512.5 c 132
 171 473.5 154 431.333333333 144 386 c 4
349 348 m 5
 309 174 l 5
 242 174 l 5
 342 609 l 5
 473 609 l 6
 496.333333333 609 516.833333333 606.333333333 534.5 601 c 132
 552.166666667 595.666666667 566.5 587.666666667 577.5 577 c 132
 588.5 566.333333333 595.666666667 552.666666667 599 536 c 132
 602.333333333 519.333333333 601.666666667 500 597 478 c 132
 592.333333333 456 582.833333333 437.166666667 568.5 421.5 c 132
 554.166666667 405.833333333 535.666666667 392.666666667 513 382 c 5
 522.333333333 377.333333333 530.166666667 371.333333333 536.5 364 c 132
 542.833333333 356.666666667 547.166666667 348.5 549.5 339.5 c 132
 551.833333333 330.5 552.666666667 320.666666667 552 310 c 4
 551.333333333 300 550 288.666666667 548 276 c 6
 541 248 l 6xfe80
 538.333333333 235.333333333 536.166666667 223.333333333 534.5 212 c 132
 532.833333333 200.666666667 533 190.666666667 535 182 c 5
 532 174 l 5
 463 174 l 5xfd80
 462.333333333 178 462.333333333 183.666666667 463 191 c 132
 463.666666667 198.333333333 464.666666667 205.5 466 212.5 c 132
 467.333333333 219.5 468.666666667 226.333333333 470 233 c 4
 471.333333333 239 472.333333333 244 473 248 c 6
 480 275 l 6xfe80
 485.333333333 299.666666667 484.166666667 318 476.5 330 c 132
 468.833333333 342 452 348 426 348 c 6
 349 348 l 5
364 414 m 5
 438 414 l 6
 448 414 458 415.333333333 468 418 c 132
 478 420.666666667 487.166666667 424.5 495.5 429.5 c 132
 503.833333333 434.5 510.833333333 441 516.5 449 c 132
 522.166666667 457 526 465.666666667 528 475 c 4
 530.666666667 487 531.666666667 497.5 531 506.5 c 132
 530.333333333 515.5 527.333333333 522.833333333 522 528.5 c 132
 516.666666667 534.166666667 508.666666667 538.333333333 498 541 c 132
 487.333333333 543.666666667 474.333333333 545 459 545 c 6
 394 545 l 5
 364 414 l 5
EndSplineSet
EndChar

StartChar: macron
Encoding: 175 175 108
Width: 305
VWidth: 1024
Flags: HW
LayerCount: 2
Fore
SplineSet
366 725 m 1
 167 725 l 1
 177 768 l 1
 376 768 l 4
 366 725 l 1
EndSplineSet
EndChar

StartChar: degree
Encoding: 176 176 109
Width: 460
VWidth: 1024
Flags: HW
LayerCount: 2
Fore
SplineSet
247 555 m 156
 261 557.666666667 271.333333333 561.666666667 278 567 c 260
 284.666666667 573 291 583 297 597 c 28
 303 611.666666667 306.333333333 626.166666667 307 640.5 c 156
 307.666666667 654.833333333 305.666666667 664.666666667 301 670 c 260
 297 676 288.666666667 680.333333333 276 683 c 28
 263.333333333 685.666666667 250.166666667 685.666666667 236.5 683 c 156
 222.833333333 680.333333333 212.666666667 676 206 670 c 260
 199.333333333 664 193 654 187 640 c 28
 181 625.333333333 177.666666667 610.833333333 177 596.5 c 156
 176.333333333 582.166666667 178 572.333333333 182 567 c 260
 186 561 194.333333333 557 207 555 c 28
 219.666666667 552.333333333 233 552.333333333 247 555 c 156
198 512 m 28
 188 514.666666667 176.333333333 522 163 534 c 28
 156.333333333 539.333333333 151.333333333 546.333333333 148 555 c 28
 141.333333333 572.333333333 138 586.333333333 138 597 c 28
 138 611.666666667 141 626 147 640 c 28
 152.333333333 651.333333333 162.666666667 665.666666667 178 683 c 28
 184.666666667 691.666666667 193 699 203 705 c 28
 221 715.666666667 235.666666667 722.333333333 247 725 c 28
 261.666666667 728.333333333 275 728.333333333 287 725 c 28
 297 722.333333333 308.666666667 715.666666667 322 705 c 28
 328.666666667 699.666666667 333.666666667 692.333333333 337 683 c 28
 343.666666667 665.666666667 346.666666667 651.333333333 346 640 c 28
 346 625.333333333 342.666666667 611 336 597 c 28
 330.666666667 585.666666667 321 571.666666667 307 555 c 28
 300.333333333 547 292.333333333 540 283 534 c 28
 264.333333333 522.666666667 249.333333333 515.333333333 238 512 c 28
 223.333333333 508.666666667 210 508.666666667 198 512 c 28
EndSplineSet
EndChar

StartChar: uni00B2
Encoding: 178 178 111
Width: 498
VWidth: 1024
Flags: HW
LayerCount: 2
Fore
SplineSet
131 482 m 1
 135 503 l 1
 243 595 l 24
 253.666666667 605 263 619 271 637 c 24
 275 645 277.333333333 654.333333333 278 665 c 24
 278 672.333333333 275.666666667 681.666666667 271 693 c 24
 267.666666667 701 264.666666667 706 262 708 c 24
 250 711.333333333 236.666666667 711.333333333 222 708 c 24
 178 686 l 1
 181 700 l 1
 225 721 l 24
 236.333333333 723.666666667 249.666666667 723.666666667 265 721 c 24
 276.333333333 719 287.666666667 714.666666667 299 708 c 24
 303 705.333333333 306.333333333 700.333333333 309 693 c 24
 313.666666667 682.333333333 315.666666667 673 315 665 c 24
 315 655.666666667 312.666666667 646.333333333 308 637 c 24
 302.666666667 625.666666667 296.666666667 616 290 608 c 0
 184 524 l 1
 261 524 l 5
 275 524 l 5
 289 524 l 5
 259 482 l 5
 131 482 l 1
EndSplineSet
EndChar

StartChar: uni00B3
Encoding: 179 179 112
Width: 459
VWidth: 1024
Flags: HW
LayerCount: 2
Fore
SplineSet
115 479 m 4
 114.333333333 481 114.166666667 482.833333333 114.5 484.5 c 132
 114.833333333 486.166666667 115.5 488 116.5 490 c 132
 117.5 492 118.666666667 493.833333333 120 495.5 c 132
 121.333333333 497.166666667 122.5 498.5 123.5 499.5 c 132
 124.5 500.5 126 501.666666667 128 503 c 6
 131 506 l 5
 134 506 l 5
 139 506 l 5
 155 510.666666667 168.666666667 515 180 519 c 4
 191.333333333 523.666666667 200.666666667 528 208 532 c 4
 210.666666667 533.333333333 213 535.166666667 215 537.5 c 132
 217 539.833333333 219 542 221 544 c 4
 228.333333333 552.666666667 234.666666667 561.333333333 240 570 c 4
 241.333333333 572.666666667 242 575.666666667 242 579 c 4
 241.333333333 589.666666667 239.333333333 598 236 604 c 4
 235.333333333 605.333333333 232.666666667 606.666666667 228 608 c 4
 226.666666667 608.666666667 225.166666667 609 223.5 609 c 132
 221 609 221 609 220 609 c 6
 176 588 l 5
 164 582 l 5
 167 595 l 5
 170 609 l 5
 171 614 l 5
 176 617 l 5
 234 645 l 5
 241.333333333 650.333333333 246.333333333 657.333333333 249 666 c 4
 249 666.666666667 248.833333333 668 248.5 670 c 132
 248.166666667 672 247.5 674.666666667 246.5 678 c 132
 245.5 681.333333333 244 685 242 689 c 4
 241.333333333 691 240.5 693 239.5 695 c 132
 238.5 697 237.666666667 698.333333333 237 699 c 4
 236 700 l 4
 230 702 223 702 215 700 c 5
 171 679 l 5
 159 673 l 5
 162 687 l 5
 165 701 l 5
 166 706 l 5
 169 708 l 6
 181.666666667 717.333333333 197.333333333 724.666666667 216 730 c 4
 226 732.666666667 236.333333333 732.666666667 247 730 c 4
 249.666666667 729.333333333 252.333333333 728.333333333 255 727 c 132
 257.666666667 725.666666667 260.333333333 724 263 722 c 132
 265.666666667 720 268.666666667 718 272 716 c 4
 274 714 274 714 276 712 c 132
 277.333333333 710.666666667 278.5 709.333333333 279.5 708 c 132
 280.5 706.666666667 281.333333333 705.166666667 282 703.5 c 132
 282.666666667 701.833333333 283.333333333 700 284 698 c 4
 287.333333333 690 289.5 683.666666667 290.5 679 c 132
 291.5 674.333333333 291.333333333 670 290 666 c 4
 289.333333333 662.666666667 287.666666667 658.833333333 285 654.5 c 132
 282.333333333 650.166666667 277 643.666666667 269 635 c 4
 268.333333333 634.333333333 268 633.666666667 268 633 c 6
 267 632 l 5
 267 632 l 5
 265 631 l 5
 266 631 l 6
 268 629 269.5 627.166666667 270.5 625.5 c 132
 271.5 623.833333333 272.666666667 621.833333333 274 619.5 c 132
 275.333333333 617.166666667 276.666666667 615.333333333 278 614 c 4
 280 609.333333333 281.5 604.5 282.5 599.5 c 132
 283.5 594.5 284.333333333 589.666666667 285 585 c 4
 285 581.666666667 284.666666667 578.166666667 284 574.5 c 132
 283.333333333 570.833333333 282 567.333333333 280 564 c 4
 277.333333333 559.333333333 274.166666667 554.5 270.5 549.5 c 132
 266.833333333 544.5 263 539.666666667 259 535 c 4
 255.666666667 531 252.5 527.666666667 249.5 525 c 132
 246.5 522.333333333 243 520 239 518 c 4
 221.666666667 508.666666667 201.666666667 499 179 489 c 4
 165.666666667 483 151 478.333333333 135 475 c 4
 133 474 l 4
 131.666666667 473.333333333 130.666666667 473 130 473 c 132
 129.333333333 473 128.333333333 472.833333333 127 472.5 c 132
 125.666666667 472.166666667 124.666666667 472 124 472 c 132
 123.333333333 472 122.333333333 472.166666667 121 472.5 c 132
 119.666666667 472.833333333 118.666666667 473.166666667 118 473.5 c 132
 117.333333333 473.833333333 116.833333333 474.5 116.5 475.5 c 132
 116.166666667 476.5 115.666666667 477.666666667 115 479 c 4
EndSplineSet
EndChar

StartChar: acute
Encoding: 180 180 113
Width: 305
VWidth: 1024
Flags: HW
LayerCount: 2
Fore
SplineSet
182 469 m 5
 406 575 l 5
 416 618 l 5
 380 640 l 5
 335 611 l 5
 150 498 l 5
 142 469 l 5
 182 469 l 5
EndSplineSet
EndChar

StartChar: mu
Encoding: 181 181 114
Width: 545
VWidth: 1024
Flags: HW
LayerCount: 2
Fore
SplineSet
12 -256 m 1x98
 98 116 l 1
 172 105 l 1
 102 -200 l 1
 12 -256 l 1x98
181 -8 m 24
 149.666666667 1.33333333333 128.333333333 15 117 33 c 0
 101 56.3333333333 94.6666666667 84 98 116 c 1
 140 299 l 1
 146 327 150.333333333 346.666666667 153 358 c 0
 152.333333333 361.333333333 150.333333333 364.5 147 367.5 c 128
 143.666666667 370.5 140.333333333 372 137 372 c 0
 132.333333333 372 126.333333333 369.666666667 119 365 c 128
 111.666666667 360.333333333 105.333333333 354.666666667 100 348 c 2
 63 301 l 1
 52 310 l 1
 77.3333333333 348.666666667 99.3333333333 376 118 392 c 128
 136.666666667 408 156.666666667 416 178 416 c 0xd8
 222 416 234.333333333 374.666666667 215 292 c 1
 174 116 l 2
 172.666666667 108.666666667 175.333333333 94.6666666667 182 74 c 0
 184.666666667 65.3333333333 189.666666667 58.3333333333 197 53 c 0
 209 42.3333333333 219.333333333 35.6666666667 228 33 c 0
 250 33 250 33 264 33 c 0
 314.666666667 51 342.333333333 64.6666666667 347 74 c 1
 410 342 l 1
 345 384 l 1
 350 406 l 1
 500 406 l 1xb8
 418 53 l 1
 481 12 l 1
 476 -8 l 1
 329 -8 l 1
 338 33 l 1
 255 -8 l 1
 218 -8 218 -8 181 -8 c 24
EndSplineSet
EndChar

StartChar: paragraph
Encoding: 182 182 115
Width: 941
VWidth: 0
Flags: HW
LayerCount: 2
Fore
SplineSet
390 0 m 1x90
 559 729 l 1
 615 729 l 5
 446 0 l 1
 390 0 l 1x90
453 727 m 25
 513 727 l 1
 345 0 l 1
 287 0 l 1
 350 275 l 1xb0
 162 286.333333333 84 361.333333333 116 500 c 0xd0
 149.333333333 644.666666667 261.666666667 720.333333333 453 727 c 25
EndSplineSet
EndChar

StartChar: periodcentered
Encoding: 183 183 116
Width: 419
VWidth: 1024
Flags: HW
LayerCount: 2
Fore
SplineSet
120 342 m 1
 90 385 l 1
 99 427 l 1
 150 470 l 1
 188 470 l 1
 218 427 l 1
 209 385 l 1
 159 342 l 1
 120 342 l 1
89 384 m 1
 98 427 l 1025
EndSplineSet
EndChar

StartChar: cedilla
Encoding: 184 184 117
Width: 167
VWidth: 1024
Flags: HW
LayerCount: 2
Fore
SplineSet
22 -22 m 1
 12 -62 l 1
 62 -81 l 0
 74 -93.6666666667 68.6666666667 -108.666666667 46 -126 c 0
 9 -130 l 1
 -24 -172 l 1
 22.6666666667 -170.666666667 59.6666666667 -159 87 -137 c 24
 111.666666667 -117.666666667 120 -94 112 -66 c 0
 55 -45 l 0
 60 -22 l 1
 22 -22 l 1
EndSplineSet
EndChar

StartChar: uni00B9
Encoding: 185 185 118
Width: 227
VWidth: 1024
Flags: HW
LayerCount: 2
Fore
SplineSet
157 488 m 1
 194 647 l 1
 151 647 l 1
 156 669 l 1
 248 725 l 5
 267 725 l 5
 213 488 l 5
 157 488 l 1
EndSplineSet
EndChar

StartChar: ordmasculine
Encoding: 186 186 119
Width: 499
VWidth: 1024
Flags: HW
LayerCount: 2
Fore
SplineSet
262 528 m 28
 267.333333333 529.333333333 275.666666667 536.666666667 287 550 c 28
 302.333333333 567.333333333 312 581.333333333 316 592 c 28
 322 606.666666667 325.666666667 621 327 635 c 28
 327 646.333333333 323.333333333 660.666666667 316 678 c 28
 310.666666667 690.666666667 305.666666667 697.666666667 301 699 c 28
 282.333333333 704.333333333 263 704.333333333 243 699 c 28
 237.666666667 697.666666667 229 690.666666667 217 678 c 28
 201.666666667 660.666666667 191.666666667 646.333333333 187 635 c 28
 181 620.333333333 177.666666667 606 177 592 c 28
 177 580.666666667 180.666666667 566.666666667 188 550 c 28
 193.333333333 537.333333333 198.333333333 530 203 528 c 28
 221 522.666666667 240.666666667 522.666666667 262 528 c 28
198 507 m 28
 189.333333333 509 177.666666667 516 163 528 c 28
 157 533.333333333 151.666666667 540.666666667 147 550 c 28
 140.333333333 567.333333333 137 581.333333333 137 592 c 28
 137 606.666666667 140.333333333 621 147 635 c 28
 152.333333333 646.333333333 162.333333333 660.666666667 177 678 c 28
 183.666666667 686 192.333333333 693 203 699 c 28
 223 711 237.666666667 718 247 720 c 28
 267.666666667 724 287.333333333 724 306 720 c 28
 314.666666667 718 326.333333333 711 341 699 c 28
 347 693.666666667 352 686.666666667 356 678 c 28
 362.666666667 660.666666667 366.333333333 646.333333333 367 635 c 28
 367 620.333333333 363.333333333 606 356 592 c 28
 350.666666667 580.666666667 341 566.666666667 327 550 c 28
 320.333333333 541.333333333 312 534 302 528 c 28
 282 516 267 509 257 507 c 28
 236.333333333 503 216.666666667 503 198 507 c 28
EndSplineSet
EndChar

StartChar: guillemotright
Encoding: 187 187 120
Width: 386
VWidth: 1024
Flags: HW
LayerCount: 2
Fore
SplineSet
45 194 m 5
 295 364 l 5
 305 407 l 5
 133 578 l 5
 124 535 l 5
 260 385 l 5
 54 236 l 5
 45 194 l 5
190 193 m 5
 440 362 l 5
 451 406 l 5
 279 575 l 5
 269 534 l 5
 406 384 l 5
 200 234 l 5
 190 193 l 5
EndSplineSet
EndChar

StartChar: questiondown
Encoding: 191 191 124
Width: 543
VWidth: 1024
Flags: HW
LayerCount: 2
Fore
SplineSet
426 725 m 5
 455 683 l 5
 445 640 l 5
 396 597 l 5
 356 597 l 5
 327 640 l 5
 337 683 l 5
 385 725 l 5
 426 725 l 5
396 512 m 5
 386 469 l 28
 378.666666667 451.666666667 368.666666667 437.666666667 356 427 c 28
 208 299 l 28
 188 278.333333333 168 249.666666667 148 213 c 28
 140.666666667 198.333333333 137.333333333 184.333333333 138 171 c 28
 140 142.333333333 147 113.666666667 159 85 c 28
 168.333333333 59.6666666667 178.333333333 45.6666666667 189 43 c 28
 216.333333333 34.3333333333 249.333333333 34.3333333333 288 43 c 28
 377 85 l 28
 401 106 l 28
 387 128 l 28
 385.666666667 145.333333333 388.666666667 159.666666667 396 171 c 28
 408.666666667 190.333333333 425.333333333 204.333333333 446 213 c 28
 461.333333333 219.666666667 474.333333333 219.666666667 485 213 c 28
 501 203.666666667 511.333333333 189.666666667 516 171 c 28
 520 154.333333333 516.666666667 140 506 128 c 28
 481.333333333 100 448.666666667 71.6666666667 408 43 c 28
 372.666666667 18.3333333333 342.333333333 4 317 0 c 28
 262.333333333 -9.33333333333 209.666666667 -9.33333333333 159 0 c 28
 141.666666667 3.33333333333 118.333333333 17.6666666667 89 43 c 28
 76.3333333333 54.3333333333 66.3333333333 68.3333333333 59 85 c 28
 47.6666666667 113 41.3333333333 141.666666667 40 171 c 28
 39.3333333333 183 42.3333333333 197 49 213 c 28
 57 231 67 245.333333333 79 256 c 28
 278 427 l 28
 336 512 l 5
 396 512 l 5
EndSplineSet
EndChar

StartChar: AE
Encoding: 198 198 131
Width: 817
VWidth: 1024
Flags: HW
LayerCount: 2
Fore
SplineSet
549 725 m 1
 48 43 l 1
 3 22 l 1
 -2 0 l 1
 157 0 l 1
 162 22 l 1
 113 51 l 1
 197 171 l 1
 450 171 l 1
 411 0 l 1
 814 0 l 1
 844 128 l 1
 824 128 l 1
 794 85 l 1
 706 43 l 1
 507 43 l 1
 575 341 l 1
 714 341 l 1
 734 256 l 1
 755 256 l 1
 804 469 l 1
 783 469 l 1
 724 384 l 1
 586 384 l 1
 654 683 l 1
 813 683 l 1
 883 640 l 1
 893 597 l 1
 912 597 l 1
 946 746 l 1
 902 725 l 1
 549 725 l 1
460 213 m 1
 226 213 l 1
 568 679 l 1
 460 213 l 1
EndSplineSet
EndChar

StartChar: Eth
Encoding: 208 208 141
Width: 672
VWidth: 1024
Flags: HW
LayerCount: 2
Fore
SplineSet
99 430 m 1
 368 430 l 1
 356 381 l 1
 88 381 l 1
 99 430 l 1
EndSplineSet
Refer: 35 68 S 1 0 0 1 0 0 2
EndChar

StartChar: multiply
Encoding: 215 215 148
Width: 424
VWidth: 1024
Flags: HW
LayerCount: 2
Fore
SplineSet
369 216 m 5
 263 368 l 5
 88 217 l 5
 61 254 l 5
 238 406 l 5
 131 556 l 5
 175 594 l 5
 282 442 l 5
 456 594 l 5
 482 556 l 5
 307 406 l 5
 413 254 l 5
 369 216 l 5
EndSplineSet
EndChar

StartChar: Thorn
Encoding: 222 222 155
Width: 543
VWidth: 1024
Flags: HW
LayerCount: 2
Fore
SplineSet
-478 1197 m 1049,0,-1
366 208 m 28,1,2
 376 210 392.333333333 224.333333333 415 251 c 28,3,4
 444.333333333 284.333333333 464.333333333 312.666666667 475 336 c 28,5,6
 488.333333333 364 495 392.666666667 495 422 c 28,7,8
 495 444 488 472.333333333 474 507 c 28,9,10
 464 533.666666667 454 548 444 550 c 28,11,-1
 286 550 l 5,12,-1
 207 208 l 5,13,-1
 366 208 l 28,1,2
0 0 m 1,14,-1
 5 22 l 1,15,-1
 94 63 l 1,16,-1
 231 662 l 1,17,-1
 163 705 l 1,18,-1
 167 725 l 1,19,-1
 324 725 l 1,20,-1
 295 592 l 5,21,-1
 454 592 l 4,22,23
 524 550 l 28,24,25
 536.666666667 538.666666667 546.333333333 524.333333333 553 507 c 28,26,27
 566.333333333 472.333333333 573 444 573 422 c 28,28,29
 573.666666667 394 567.333333333 365.333333333 554 336 c 28,30,31
 544 314 524.333333333 285.666666667 495 251 c 28,32,33
 478.333333333 232.333333333 461.666666667 218 445 208 c 28,34,35
 405 183.333333333 375 169.333333333 355 166 c 28,36,-1
 198 166 l 5,37,-1
 174 63 l 1,38,-1
 243 22 l 1,39,-1
 238 0 l 1,40,-1
 0 0 l 1,14,-1
EndSplineSet
EndChar

StartChar: germandbls
Encoding: 223 223 156
Width: 492
VWidth: 1024
Flags: HW
LayerCount: 2
Fore
SplineSet
288 597 m 0
 151 0 l 1
 74 0 l 1
 202 555 l 25
 206 567.666666667 234.333333333 610.333333333 287 683 c 24
 293 690.333333333 300.666666667 697.666666667 310 705 c 24
 331.333333333 718.333333333 345 725 351 725 c 0
 389 725 l 24
 389.666666667 723 400.666666667 716.333333333 422 705 c 0
 561.333333333 627.666666667 550.666666667 533 390 421 c 24
 382.666666667 415.666666667 373.333333333 411 362 407 c 0
 356.666666667 405 350.666666667 395.333333333 344 378 c 24
 338.666666667 354.666666667 335.666666667 340.666666667 335 336 c 0
 341.666666667 324 359 312 387 300 c 0
 435 273 l 0
 448.333333333 264.333333333 464 250.666666667 482 232 c 4
 502 210 512.666666667 188.333333333 514 167 c 0
 510 149 503.666666667 120.333333333 495 81 c 24
 491.666666667 72.3333333333 482 58.3333333333 466 39 c 24
 458.666666667 30.3333333333 451 23 443 17 c 24
 422.333333333 4.33333333333 408.333333333 -2.66666666667 401 -4 c 24
 334 -4 334 -4 292 -4 c 24
 264 2.66666666667 243 17 229 39 c 24
 231.666666667 50.3333333333 235 64.3333333333 239 81 c 24
 250.333333333 95.6666666667 264.333333333 102.666666667 281 102 c 24
 292.333333333 102 302.333333333 95 311 81 c 24
 321 39 l 24
 341 39 341 39 412 39 c 24
 422 40.3333333333 430.666666667 44.6666666667 438 52 c 24
 448 61.3333333333 454.666666667 71 458 81 c 4
 468 124 l 0
 454.666666667 164 437 189.333333333 415 200 c 0
 360 223 l 0
 338 231.666666667 322.666666667 240.666666667 314 250 c 0
 296.666666667 266.666666667 288 281 288 293 c 24
 292 312.333333333 298.333333333 340.666666667 307 378 c 0
 313 395.333333333 323.666666667 410.666666667 339 424 c 0
 452.333333333 530 458.333333333 610.333333333 357 665 c 0
 316 640 l 0
 300.666666667 622.666666667 291.333333333 608.333333333 288 597 c 0
EndSplineSet
EndChar

StartChar: ae
Encoding: 230 230 163
Width: 377
VWidth: 1024
Flags: HW
LayerCount: 2
Fore
SplineSet
539 262 m 1
 334 262 l 1
 355 340 l 24
 358.333333333 344 390.666666667 360.666666667 452 390 c 0
 482 390 482 390 510 390 c 0
 521.333333333 383.333333333 530.666666667 364 538 332 c 24
 539 262 l 1
280 49 m 9
 297.333333333 32.3333333333 324.666666667 18 362 6 c 0
 411 6 411 6 451 6 c 24
 553 71 l 1
 562 113 l 1
 460 49 l 24
 420 49 420 49 373 49 c 24
 347.666666667 57 332.333333333 71.3333333333 327 92 c 0
 318 125 318 125 309 158 c 24
 325 220 l 1
 587 220 l 1
 597 262 l 24
 597 290.666666667 594 319.333333333 588 348 c 24
 584.666666667 365.333333333 578 379.333333333 568 390 c 24
 552 409.333333333 536 423.666666667 520 433 c 0
 486 451 446.666666667 442.666666667 402 408 c 4
 373.333333333 386 352.333333333 378 339 384 c 0
 274 427 l 0
 242 427 242 427 202 427 c 24
 167.333333333 417.666666667 139.666666667 403.333333333 119 384 c 24
 116.333333333 372.666666667 113.333333333 358.333333333 110 341 c 24
 114.666666667 326.333333333 124.666666667 319 140 319 c 24
 152 319 166 326.333333333 182 341 c 24
 210 384 l 24
 223 384 223 384 264 384 c 24
 272.666666667 382.666666667 279.833333333 377.833333333 285.5 369.5 c 152
 291.166666667 361.166666667 293.333333333 351.666666667 292 341 c 24
 271 256 l 1
 163 256 l 24
 144.333333333 252 116.666666667 237.666666667 80 213 c 24
 55.3333333333 196.333333333 40 182.333333333 34 171 c 24
 28 143 21 114.333333333 13 85 c 24
 13.6666666667 73 23 59 41 43 c 24
 68.3333333333 17 89 2.66666666667 103 0 c 0
 145 0 145 0 176 0 c 0
 242 43 l 1
 280 49 l 9
185 43 m 24
 148 43 148 43 114 43 c 24
 105.333333333 44.3333333333 98.1666666667 49 92.5 57 c 152
 86.8333333333 65 84.6666666667 74.3333333333 86 85 c 24
 92 113 98.3333333333 141.666666667 105 171 c 24
 108.333333333 181.666666667 115 191 125 199 c 24
 133.666666667 207 143 211.666666667 153 213 c 24
 262 213 l 1
 232 85 l 24
 229.333333333 75 223 65.3333333333 213 56 c 24
 203.666666667 48.6666666667 194.333333333 44.3333333333 185 43 c 24
EndSplineSet
EndChar

StartChar: ccedilla
Encoding: 231 231 164
Width: 428
VWidth: 1024
Flags: HW
LayerCount: 2
Fore
SplineSet
154 -22 m 5
 144 -60 l 5
 191 -78 l 4
 201.666666667 -90 196.333333333 -104.333333333 175 -121 c 4
 142 -125 l 5
 110 -168 l 5
 153.333333333 -166.666666667 187.666666667 -155 213 -133 c 28
 236.333333333 -114.333333333 244 -92 236 -66 c 4
 184 -44 l 4
 189 -22 l 5
 154 -22 l 5
140 -6 m 24
 123.333333333 -2 102.333333333 11.6666666667 77 35 c 24
 65 45 55.6666666667 58.3333333333 49 75 c 24
 37.6666666667 107.666666667 32 135 32 157 c 24
 38 184.333333333 44 211.333333333 50 238 c 24
 59.3333333333 260 78 287 106 319 c 24
 118.666666667 336.333333333 134 350.666666667 152 362 c 24
 188.666666667 386.666666667 216.666666667 401.333333333 236 406 c 24
 290 406 290 406 345 406 c 24
 373.666666667 398.666666667 394.666666667 384 408 362 c 24
 405.333333333 350.666666667 401.666666667 336.333333333 397 319 c 24
 385.666666667 304.333333333 372 297.333333333 356 298 c 24
 344 298 333.666666667 305 325 319 c 24
 316 362 l 24
 274 362 274 362 225 362 c 24
 214.333333333 358.666666667 199 344.333333333 179 319 c 24
 151.666666667 286.333333333 133 259.333333333 123 238 c 24
 117 210.666666667 110.666666667 183.666666667 104 157 c 24
 104 135.666666667 110 108.333333333 122 75 c 24
 130.666666667 50.3333333333 140 37 150 35 c 24
 204 35 204 35 259 35 c 24
 383 95 l 1
 373 54 l 1
 250 -6 l 24
 201 -6 201 -6 140 -6 c 24
EndSplineSet
EndChar

StartChar: edieresis
Encoding: 235 235 168
Width: 482
VWidth: 1024
Flags: HW
LayerCount: 2
Fore
SplineSet
449 514 m 5
 402 472 l 5
 366 472 l 5
 339 514 l 5
 349 557 l 5
 394 600 l 5
 431 600 l 5
 459 557 l 5
 449 514 l 5
271 512 m 5
 224 469 l 5
 187 469 l 5
 162 512 l 5
 172 555 l 5
 217 597 l 5
 254 597 l 5
 282 555 l 5
 271 512 l 5
EndSplineSet
Refer: 68 101 N 1 0 0 1 0 0 2
EndChar

StartChar: igrave
Encoding: 236 236 169
Width: 316
VWidth: 1024
Flags: HW
LayerCount: 2
Fore
SplineSet
150 0 m 1
 73 0 l 1
 142 300 l 1
 148 327.333333333 152 346.666666667 154 358 c 0
 153.333333333 361.333333333 151.333333333 364.666666667 148 368 c 0
 144.666666667 370.666666667 141.333333333 372 138 372 c 0
 126.666666667 372 114.333333333 364 101 348 c 2
 66 301 l 1
 53 312 l 1
 77.6666666667 350 99.6666666667 376.666666667 119 392 c 0
 138.333333333 408 158.666666667 416 180 416 c 0
 204.666666667 416 219 405.333333333 223 384 c 0
 227.666666667 362.666666667 225.666666667 333 217 295 c 1
 150 0 l 1
EndSplineSet
Refer: 63 96 S 1 0 0 1 -25.3906 3.90625 2
EndChar

StartChar: iacute
Encoding: 237 237 170
Width: 314
VWidth: 1024
Flags: HW
LayerCount: 2
Fore
SplineSet
150 0 m 1
 73 0 l 1
 142 300 l 1
 148 327.333333333 152 346.666666667 154 358 c 0
 153.333333333 361.333333333 151.333333333 364.666666667 148 368 c 0
 144.666666667 370.666666667 141.333333333 372 138 372 c 0
 126.666666667 372 114.333333333 364 101 348 c 2
 66 301 l 1
 53 312 l 1
 77.6666666667 350 99.6666666667 376.666666667 119 392 c 0
 138.333333333 408 158.666666667 416 180 416 c 0
 204.666666667 416 219 405.333333333 223 384 c 0
 227.666666667 362.666666667 225.666666667 333 217 295 c 1
 150 0 l 1
EndSplineSet
Refer: 113 180 S 1 0 0 1 -36.1328 9.76562 2
EndChar

StartChar: icircumflex
Encoding: 238 238 171
Width: 316
VWidth: 1024
Flags: HW
LayerCount: 2
Fore
SplineSet
150 0 m 1
 73 0 l 1
 142 300 l 1
 148 327.333333333 152 346.666666667 154 358 c 0
 153.333333333 361.333333333 151.333333333 364.666666667 148 368 c 0
 144.666666667 370.666666667 141.333333333 372 138 372 c 0
 126.666666667 372 114.333333333 364 101 348 c 2
 66 301 l 1
 53 312 l 1
 77.6666666667 350 99.6666666667 376.666666667 119 392 c 0
 138.333333333 408 158.666666667 416 180 416 c 0
 204.666666667 416 219 405.333333333 223 384 c 0
 227.666666667 362.666666667 225.666666667 333 217 295 c 1
 150 0 l 1
EndSplineSet
Refer: 61 94 S 0.75 0 0 0.5 10.7422 250 2
EndChar

StartChar: idieresis
Encoding: 239 239 172
Width: 283
VWidth: 1024
Flags: HW
LayerCount: 2
Fore
SplineSet
356 519 m 5
 309 477 l 5
 272 477 l 5
 246 519 l 5
 256 562 l 5
 302 605 l 5
 339 605 l 5
 366 562 l 5
 356 519 l 5
176 517 m 5
 129 474 l 5
 92 474 l 5
 67 517 l 5
 76 560 l 5
 122 602 l 5
 159 602 l 5
 185 560 l 5
 176 517 l 5
174 110 m 1
 167.333333333 81.3333333333 163.333333333 60.6666666667 162 48 c 0
 162.666666667 44.6666666667 164.333333333 41.5 167 38.5 c 128
 169.666666667 35.5 172.666666667 34 176 34 c 0
 187.333333333 34 200 42.3333333333 214 59 c 2
 251 109 l 1
 263 97 l 1
 237.666666667 57.6666666667 215.5 30 196.5 14 c 128
 177.5 -2 157 -10 135 -10 c 0
 110.333333333 -10 95.8333333333 1 91.5 23 c 128
 87.1666666667 45 89.6666666667 76.3333333333 99 117 c 1
 156 362 l 1
 93 406 l 1
 98 427 l 1
 247 427 l 1
 174 110 l 1
EndSplineSet
EndChar

StartChar: eth
Encoding: 240 240 173
Width: 459
VWidth: 1024
Flags: HW
LayerCount: 2
Fore
SplineSet
141 0 m 0
 124.333333333 4 103.333333333 18.3333333333 78 43 c 0
 66 53.6666666667 57.3333333333 67.6666666667 52 85 c 0
 40.6666666667 119 35 147.666666667 35 171 c 0
 41.6666666667 199.666666667 48 228 54 256 c 0
 63.3333333333 278.666666667 82.3333333333 307 111 341 c 0
 123.666666667 358.333333333 139 372.666666667 157 384 c 0
 193.666666667 408.666666667 221.666666667 423 241 427 c 0
 295 427 295 427 350 427 c 0
 350.666666667 427 351.333333333 426.666666667 352 426 c 2
 330 572 l 1
 202 572 l 1
 191 622 l 1
 323 622 l 1
 308 712 l 1
 359 710 l 1
 379 622 l 1
 492 622 l 1
 498 572 l 1
 390 572 l 1
 446 319 l 2
 452.666666667 294.333333333 456 273.333333333 456 256 c 0
 449.333333333 227.333333333 442.666666667 199 436 171 c 0
 426.666666667 148.333333333 408 119.666666667 380 85 c 0
 366.666666667 67.6666666667 351.333333333 53.6666666667 334 43 c 0
 297.333333333 18.3333333333 269.666666667 4 251 0 c 0
 195 0 195 0 141 0 c 0
261 43 m 0
 271 45.6666666667 286.333333333 59.6666666667 307 85 c 0
 334.333333333 119 353.333333333 147.666666667 364 171 c 0
 370.666666667 199.666666667 377 228 383 256 c 0
 383.666666667 278.666666667 378 307 366 341 c 0
 357.333333333 367 348.666666667 381.333333333 340 384 c 0
 285 384 285 384 230 384 c 0
 220 381.333333333 204.333333333 367 183 341 c 0
 155 307 136.333333333 278.666666667 127 256 c 0
 120.333333333 227.333333333 114 199 108 171 c 0
 107.333333333 148.333333333 113 119.666666667 125 85 c 0
 133.666666667 59 142.666666667 45 152 43 c 0
 207 43 207 43 261 43 c 0
EndSplineSet
EndChar

StartChar: odieresis
Encoding: 246 246 179
Width: 523
VWidth: 1024
Flags: HW
LayerCount: 2
Fore
SplineSet
467 513 m 1
 420 471 l 1
 383 471 l 1
 357 513 l 1
 367 556 l 1
 413 599 l 1
 450 599 l 1
 476 556 l 1
 467 513 l 1
290 513 m 5
 243 470 l 5
 207 470 l 5
 180 513 l 5
 190 556 l 5
 236 598 l 5
 272 598 l 5
 300 556 l 5
 290 513 l 5
EndSplineSet
Refer: 78 111 N 1 0 0 1 0 0 2
EndChar

StartChar: oslash
Encoding: 248 248 181
Width: 519
VWidth: 1024
Flags: HW
LayerCount: 2
Fore
SplineSet
54 51 m 1
 447 414 l 5
 433 400 l 0
 443.666666667 410 456.333333333 415.333333333 471 416 c 0
 498.333333333 416 512.666666667 403.333333333 514 378 c 0
 514 369.333333333 511.666666667 362 507 356 c 0
 502.333333333 350.666666667 496 347.666666667 488 347 c 0
 480.666666667 347 471.666666667 350 461 356 c 0
 452.333333333 362 444 365.333333333 436 366 c 0
 434.666666667 366 430 361.666666667 422 353 c 0
 484 414 l 5
 42 5 l 1
 32 -5 19.3333333333 -10 4 -10 c 0
 -23.3333333333 -10 -37.6666666667 2.33333333333 -39 27 c 0
 -39 35.6666666667 -36.3333333333 42.6666666667 -31 48 c 0
 -26.3333333333 53.3333333333 -20 56.3333333333 -12 57 c 0
 -4.66666666667 57 4.33333333333 54 15 48 c 0
 23.6666666667 42.6666666667 31.6666666667 40 39 40 c 0
 40.3333333333 40 45.3333333333 43.6666666667 54 51 c 1
EndSplineSet
Refer: 78 111 N 1 0 0 1 0 0 2
EndChar

StartChar: udieresis
Encoding: 252 252 185
Width: 607
VWidth: 1024
Flags: HW
LayerCount: 2
Fore
SplineSet
482 514 m 5
 436 472 l 5
 399 472 l 5
 373 514 l 5
 383 557 l 5
 429 600 l 5
 466 600 l 5
 493 557 l 5
 482 514 l 5
305 512 m 5
 259 469 l 5
 222 469 l 5
 196 512 l 5
 206 555 l 5
 252 597 l 5
 288 597 l 5
 315 555 l 5
 305 512 l 5
EndSplineSet
Refer: 84 117 N 1 0 0 1 0 0 2
EndChar

StartChar: thorn
Encoding: 254 254 187
Width: 501
VWidth: 1024
Flags: HW
LayerCount: 2
Fore
SplineSet
304 43 m 24
 314 45.6666666667 328 52.3333333333 346 63 c 24
 354.666666667 68.3333333333 362.666666667 75.6666666667 370 85 c 24
 386.666666667 105 395.666666667 119.333333333 397 128 c 24
 409.666666667 184.666666667 423 241.666666667 437 299 c 24
 438.333333333 307 435.333333333 321 428 341 c 24
 425.333333333 349 421 356 415 362 c 24
 403.666666667 373.333333333 393 380.666666667 383 384 c 24
 361 384 361 384 347 384 c 24
 266.333333333 352 225 330.333333333 223 319 c 0
 205.666666667 244.333333333 189.333333333 173.333333333 174 106 c 24
 171.333333333 95.3333333333 202.666666667 74.3333333333 268 43 c 24
 282 43 282 43 304 43 c 24
4 -299 m 1
 224 664 l 5
 162 707 l 5
 166 727 l 5
 314 727 l 5
 232 362 l 0
 357 427 l 24
 390 427 390 427 430 427 c 24
 460.666666667 417.666666667 481.666666667 403.333333333 493 384 c 24
 507.666666667 361.333333333 513.333333333 333 510 299 c 24
 497.333333333 242.333333333 484 185.333333333 470 128 c 24
 458 94 439.333333333 65.6666666667 414 43 c 24
 393.333333333 23.6666666667 366 9.33333333333 332 0 c 24
 292 0 292 0 259 0 c 24
 164 63 l 24
 95 -234 l 1
 158 -278 l 1
 153 -299 l 1
 4 -299 l 1
EndSplineSet
EndChar

